<svg width="126" height="44" viewBox="0 0 126 44" fill="none" xmlns="http://www.w3.org/2000/svg">
<g clip-path="url(#clip0_1_1249)">
<path d="M115.019 15.2604C115.019 15.2604 114.961 15.3601 114.847 15.4171C114.733 15.5026 114.59 15.5168 114.432 15.5168C114.232 15.5026 114.132 15.4598 114.032 15.3174C113.76 14.9184 113.574 14.5337 113.274 13.8355C113.017 13.2228 113.06 13.3225 112.674 12.3964C112.502 11.9689 112.173 11.2565 111.987 11.0142C111.716 10.6438 111.201 10.2591 111.015 10.1878C110.8 10.0881 110.457 10.0168 110.128 9.98834C109.528 9.9456 108.913 10.0453 108.67 10.1023C108.47 10.1593 108.112 10.2733 107.941 10.5013C107.926 10.544 107.826 10.6438 107.726 10.7008C107.469 10.8148 107.412 10.8148 107.069 11.057C106.511 11.456 106.611 12.0829 106.897 12.3251H106.911C106.911 12.1684 106.911 12.0259 106.954 12.0259C106.997 12.0402 107.254 12.2254 107.669 12.1684C107.969 12.1256 108.17 12.5816 108.17 12.5816L108.227 12.4391C108.227 12.4391 108.327 12.7383 108.398 12.7953C108.413 12.7811 108.441 12.7383 108.441 12.7383C108.541 12.8523 108.684 12.9093 108.699 13.1088C108.699 13.2655 108.627 13.4223 108.398 13.636C108.313 13.7215 107.841 14.1062 107.326 14.6192C107.069 14.8899 106.926 15.0466 106.654 15.3459C106.511 15.5026 106.396 15.5881 106.254 15.6023H106.196C106.039 15.6023 105.925 15.5168 105.853 15.4456C105.81 15.3601 103.208 11.9404 101.95 10.3018C104.209 8.10751 107.941 7.73705 108.884 7.82254C109.099 7.83679 109.356 8.02202 109.085 8.37824C109.285 8.47798 110.057 8.39249 110.329 8.13601C110.6 8.39249 111.372 8.46373 111.573 8.37824C111.301 8.02202 111.558 7.85104 111.773 7.82254C112.702 7.76554 116.248 7.92228 118.736 10.3731C117.507 11.9689 115.891 14.0065 115.019 15.2604ZM125.986 21.9288C126.057 13.6503 124.241 9.00518 122.654 6.72539C123.183 6.01295 123.526 5.58549 123.541 5.557C123.698 5.40026 123.97 5.14378 124.556 5.05829C124.713 3.96114 125.128 2.66451 125.128 2.66451C125.128 2.66451 124.041 3.44819 123.012 3.8899C123.083 4.4456 122.954 4.77332 122.811 4.9728C122.797 4.98705 122.54 5.34326 122.125 5.89896C121.424 5.08679 120.624 4.3601 119.437 3.67617C119.165 3.51943 118.836 3.36269 118.522 3.22021C118.536 2.76425 118.379 2.35104 118.093 2.05181C118.079 1.79534 117.85 1.48187 117.592 1.38212C117.321 1.29663 116.92 1.43912 116.72 1.62435C116.291 1.68135 115.848 1.92358 115.533 2.27979C114.561 2.08031 113.46 1.92358 112.202 1.85233C112.044 1.23964 111.644 0.783679 111.158 0.555699C111.044 0.299223 110.658 0.0284974 110.343 0C110.028 0.0142487 109.657 0.270725 109.528 0.555699C109.027 0.797927 108.641 1.23964 108.498 1.85233C107.226 1.92358 106.125 2.09456 105.153 2.27979C104.838 1.92358 104.423 1.70984 103.966 1.62435C103.766 1.42487 103.351 1.31088 103.093 1.38212C102.836 1.48187 102.622 1.79534 102.593 2.05181C102.293 2.35104 102.135 2.76425 102.164 3.22021C101.821 3.36269 101.535 3.51943 101.249 3.67617C100.062 4.34585 99.3329 5.0013 98.618 5.87047C98.2462 5.35751 98.0032 5.05829 97.9889 5.04404C97.8459 4.84456 97.7172 4.51684 97.7887 3.96114C96.7592 3.53368 95.6725 2.73575 95.6725 2.73575C95.6725 2.73575 96.0442 4.03238 96.2015 5.11528C96.7735 5.18653 97.0309 5.44301 97.2167 5.61399C97.231 5.62824 97.5313 6.01295 98.0032 6.6399C96.416 8.90544 94.5572 13.579 94.643 21.9288C94.643 22.6982 94.3284 29.9223 96.6734 34.7811C96.9308 35.2798 97.6457 36.5764 98.9469 37.8018C100.019 38.8135 101.278 39.5259 102.707 39.8964C102.75 39.9106 102.85 39.9391 102.879 39.9391C104.652 40.4093 106.182 40.1386 106.797 39.7824L106.697 39.9961C106.697 39.9961 106.64 40.1386 106.625 40.1956C106.282 41.079 106.511 42.0052 107.741 42.1619C108.055 42.2047 108.413 42.2189 108.842 42.4041C109.142 42.5466 109.456 42.7604 109.828 43.1308C109.985 43.2876 110.3 43.6865 110.443 44C110.6 43.6865 110.915 43.2876 111.058 43.1308C111.415 42.7604 111.744 42.5324 112.044 42.4041C112.459 42.2047 112.817 42.1904 113.16 42.1619C114.361 42.0194 114.604 41.0933 114.275 40.2098C114.261 40.1528 114.218 40.0674 114.189 40.0104C114.175 39.9534 114.089 39.7966 114.089 39.7966C114.933 40.2953 117.521 40.6658 120.009 39.0842C121.71 38.0155 122.954 36.8044 123.941 34.8238C126.3 29.9793 125.986 22.5984 125.957 21.9288" fill="white"/>
<path d="M125.485 19.6632C124.799 20.2189 124.141 20.7889 121.968 22.0285L121.396 22.3277V21.9145C121.396 21.9145 121.553 16.386 118.879 11.6839C118.708 11.8977 118.15 12.6101 117.578 13.3653C117.921 13.3225 118.264 13.4223 118.593 13.7215C119.151 14.2487 120.037 15.5596 120.567 16.9132C120.838 17.7681 121.081 18.908 121.024 19.8912C121.024 19.8912 120.709 25.4767 120.052 30.7914C119.48 35.636 119.137 36.2772 119.137 36.2772C118.765 35.8212 118.608 35.2513 118.522 34.9378L118.465 34.9806C118.465 34.9806 118.136 34.4819 117.936 33.5414C117.692 32.4585 117.664 30.5065 117.678 29.5803C117.678 29.5803 117.692 29.3096 117.464 28.8251C117.364 28.6114 117.264 28.3977 117.206 28.1554C116.849 26.6308 116.177 26.2176 115.805 25.7759C115.347 25.2202 115.019 24.636 114.818 24.1515C114.818 24.1515 114.804 24.1658 114.776 24.1943C114.518 24.4365 114.347 24.6645 114.347 24.807C114.432 25.6762 114.504 26.3031 114.389 26.7448C114.332 26.7306 114.246 26.6308 114.218 26.6023C114.275 27.1723 114.003 27.842 114.175 28.3834L113.832 28.3407C113.832 28.3407 113.846 28.4262 113.875 28.4262C113.918 28.4832 113.975 28.5259 114.046 28.5686C114.061 28.5686 114.118 28.6114 114.161 28.6256C114.204 28.6399 114.275 28.6684 114.518 28.7396C114.718 28.3122 114.561 27.8847 114.361 27.6567C114.204 27.4572 114.404 27.158 114.733 27.3148C115.176 27.5142 115.648 27.785 116.134 28.2409C116.849 28.9106 117.063 29.5661 116.906 29.6943C116.792 29.794 116.706 29.7798 116.549 29.7085C116.549 29.7228 116.549 29.7655 116.534 29.794C116.491 29.9365 116.391 30.0078 116.22 30.0505H116.205C116.12 30.1645 116.005 30.2072 115.791 30.2072C115.619 30.2072 115.39 30.0933 115.376 30.0933C115.333 30.079 115.29 30.0505 115.233 29.9935C115.19 30.0363 115.162 30.0505 115.119 30.0933C115.691 30.8484 116.763 32.1023 117.535 33.4845C118.093 34.4676 118.35 35.2798 118.35 35.2798C118.35 35.2798 118.05 35.3795 117.678 35.2798C117.821 35.6788 117.893 36.0065 117.85 36.2914C117.549 36.3057 117.163 36.2772 116.763 36.035C116.777 36.092 116.777 36.149 116.806 36.2344C117.163 36.4909 117.535 36.7617 117.721 36.8899C116.02 37.6736 113.56 37.3174 113.532 37.3031C113.417 37.2889 113.317 37.2604 113.217 37.2604C113.203 37.3031 113.174 37.3601 113.16 37.4171C113.317 37.8161 113.717 38.7137 113.789 38.899C114.861 39.3977 115.862 39.7111 117.407 39.4547C117.407 39.4547 117.664 39.4404 118.336 39.2124C119.008 38.9987 120.281 38.2435 121.253 37.3316C122.454 36.206 123.197 35.0091 123.426 34.5389C125.314 30.8912 125.6 25.4624 125.6 23.2824V22.1425C125.585 21.4728 125.542 20.2617 125.528 19.6917" fill="#E7262F"/>
<path d="M107.183 38.8705C107.254 38.671 107.598 37.8588 107.769 37.4456C107.755 37.3744 107.726 37.3031 107.712 37.2319C107.469 37.2746 107.24 37.3174 106.997 37.3316C106.84 37.3459 104.509 37.7021 102.808 36.9184C103.008 36.7759 103.408 36.4625 103.923 36.1347C103.923 36.092 103.937 36.0635 103.937 36.035C103.522 36.2772 103.151 36.2915 102.85 36.2915C102.836 36.0207 102.893 35.6788 103.022 35.2798C102.65 35.3653 102.35 35.2798 102.35 35.2798C102.35 35.2798 102.607 34.4534 103.165 33.4845C103.68 32.5583 104.409 31.6321 105.024 30.877C105.081 30.5777 105.324 30.3213 105.367 30.2785C105.381 30.2643 105.438 30.1788 105.467 30.1645C105.381 30.1075 105.324 30.0505 105.267 30.0078C105.21 30.079 105.153 30.1218 105.11 30.1503C104.909 30.2358 104.795 30.2643 104.695 30.2643C104.48 30.2643 104.366 30.2215 104.28 30.1218H104.266C104.109 30.0648 103.994 29.965 103.951 29.8511C103.951 29.8368 103.937 29.7941 103.937 29.7656C103.823 29.8083 103.737 29.8083 103.623 29.7228C103.465 29.5803 103.68 28.9391 104.395 28.2694C104.895 27.7992 105.367 27.5143 105.796 27.329C106.139 27.1865 106.325 27.4715 106.168 27.671C105.968 27.9132 105.81 28.3264 106.025 28.7539C106.225 28.6969 106.296 28.6542 106.339 28.6399C106.411 28.5972 106.511 28.5829 106.611 28.4404C106.625 28.4262 106.625 28.3977 106.654 28.3549L106.354 28.3977C106.511 28.0272 106.268 27.1153 106.425 26.5169C106.382 26.5311 106.282 26.6166 106.225 26.6308C106.111 26.1036 106.125 25.2345 106.168 24.8213C106.168 24.7073 106.01 24.522 105.796 24.3083C105.639 24.7358 105.338 25.2487 104.852 25.8472C104.48 26.3174 103.78 26.7306 103.451 28.2125C103.394 28.4689 103.308 28.6827 103.194 28.8964C102.951 29.3666 102.979 29.6516 102.979 29.6516C102.993 30.592 102.965 32.5298 102.722 33.6127C102.522 34.5674 102.193 35.0518 102.193 35.0518L102.135 35.0091C102.064 35.3226 101.892 35.8925 101.521 36.3485C101.521 36.3485 101.206 35.7215 100.606 30.8627C99.9764 25.5194 99.6332 19.9625 99.6332 19.9625C99.576 18.9793 99.7905 17.8394 100.091 16.9845C100.606 15.6451 101.521 14.3485 102.064 13.7928C102.407 13.4508 102.793 13.3795 103.179 13.4508C103.079 13.3083 102.965 13.1516 102.965 13.1516C102.593 12.6529 102.178 12.1257 101.821 11.6555C99.2043 16.2578 99.2615 21.7293 99.2615 21.772V22.3705L98.8039 22.1283C96.7306 20.9029 95.8298 20.2189 95.1577 19.6632C95.1434 20.2189 95.0862 22.114 95.0862 22.114V23.2539C95.0862 25.4482 95.4866 30.8342 97.2882 34.5104C97.5456 34.9663 98.2034 36.206 99.4187 37.3316C100.334 38.2008 101.421 38.8135 102.607 39.184C102.665 39.1982 102.808 39.241 102.879 39.2837C104.252 39.7112 105.753 39.6257 107.212 38.8847V38.842L107.183 38.8705Z" fill="#E7262F"/>
<path d="M108.298 40.2668C108.341 39.6114 108.441 38.6425 108.57 37.8018C108.355 38.0155 108.17 38.1153 108.155 38.1153C108.112 38.1153 108.098 38.0725 108.041 38.0155C107.626 39.0272 107.054 40.4236 107.054 40.4236C107.326 40.2098 107.769 40.0246 108.298 40.2668Z" fill="#E7262F"/>
<path d="M112.288 40.908C112.33 40.2384 112.044 38.4003 111.873 37.3601C111.859 37.3459 111.83 37.3031 111.816 37.2746C111.773 37.2319 111.758 37.1749 111.716 37.1321C111.658 37.3459 111.573 37.5739 111.473 37.7876C111.358 38.0441 111.172 38.3148 111.144 38.3005C111.101 38.3005 110.629 37.9443 110.314 37.2746C110 37.9443 109.528 38.2863 109.485 38.2863C109.442 38.2863 109.271 38.0298 109.156 37.7733C109.099 37.6593 109.056 37.5311 109.013 37.4171C108.856 38.5 108.613 40.2526 108.641 40.908C107.626 40.2384 106.997 40.908 107.212 41.3783C107.226 41.421 107.254 41.4637 107.269 41.4922C107.383 41.649 107.54 41.7487 107.783 41.7487C108.112 41.763 108.541 41.8057 109.027 42.0194C109.485 42.2332 109.957 42.5751 110.457 43.1878C110.958 42.5751 111.43 42.2189 111.887 42.0194C112.388 41.7772 112.817 41.763 113.131 41.7487C113.346 41.7345 113.503 41.6347 113.646 41.4922C113.66 41.4495 113.689 41.4068 113.703 41.3783C113.918 40.908 113.303 40.2526 112.302 40.908" fill="#E7262F"/>
<path d="M112.645 38.1295C112.645 38.1295 112.488 38.0583 112.316 37.8873C112.459 38.6425 112.588 39.5829 112.616 40.2668C113.145 40.0531 113.574 40.2098 113.846 40.4378C113.846 40.4236 113.231 38.8562 112.86 37.8873C112.759 38.0013 112.688 38.101 112.659 38.101" fill="#E7262F"/>
<path d="M125.571 22.171C125.557 21.4443 125.514 20.2332 125.485 19.6917C124.799 20.2474 124.141 20.8174 121.968 22.057L121.396 22.3562V21.943C121.396 21.943 121.553 16.4145 118.879 11.7124C118.708 11.9262 118.15 12.6386 117.578 13.3938C117.907 13.351 118.264 13.4508 118.593 13.75C119.151 14.2772 120.037 15.5881 120.567 16.9417C120.838 17.7966 121.081 18.9365 121.024 19.9197C121.024 19.9197 120.71 25.5052 120.052 30.8199C119.48 35.6645 119.137 36.3057 119.137 36.3057C118.765 35.8497 118.608 35.2798 118.522 34.9663L118.465 35.0091C118.465 35.0091 118.121 34.5104 117.936 33.5699C117.692 32.487 117.664 30.535 117.678 29.6088C117.678 29.6088 117.692 29.3381 117.464 28.8536C117.364 28.6399 117.264 28.4262 117.206 28.1839C116.849 26.6593 116.177 26.2461 115.805 25.8044C115.347 25.2487 115.019 24.6645 114.818 24.1801L114.776 24.2228C114.518 24.465 114.347 24.693 114.347 24.8355C114.418 25.7047 114.504 26.3316 114.389 26.7733C114.332 26.7591 114.246 26.6593 114.218 26.6308C114.275 27.2008 114.003 27.8705 114.175 28.4119L113.846 28.3692C113.846 28.3692 113.86 28.4547 113.889 28.4547C113.932 28.5117 113.989 28.5544 114.061 28.5972C114.075 28.5972 114.132 28.6399 114.175 28.6541C114.218 28.6684 114.289 28.6969 114.532 28.7681C114.733 28.3407 114.575 27.9132 114.375 27.6852C114.218 27.4858 114.418 27.1865 114.747 27.3433C115.176 27.5427 115.662 27.8135 116.148 28.2694C116.863 28.9391 117.078 29.5946 116.92 29.737C116.806 29.8368 116.72 29.8083 116.563 29.7513C116.563 29.7655 116.563 29.8083 116.549 29.8368C116.506 29.9793 116.406 30.0505 116.234 30.0933H116.22C116.134 30.2073 116.02 30.25 115.805 30.25C115.633 30.25 115.405 30.136 115.39 30.136C115.347 30.1218 115.319 30.0933 115.247 30.0363C115.205 30.079 115.162 30.0933 115.133 30.136C115.705 30.8912 116.777 32.1451 117.549 33.5272C118.107 34.5104 118.365 35.3225 118.365 35.3225C118.365 35.3225 118.064 35.4223 117.692 35.3225C117.835 35.7215 117.907 36.0492 117.864 36.3342C117.564 36.3484 117.178 36.3199 116.777 36.0777C116.792 36.1347 116.792 36.1917 116.82 36.2772C117.178 36.5337 117.549 36.8044 117.735 36.9326C116.034 37.7163 113.574 37.3601 113.546 37.3459C113.431 37.3316 113.331 37.3031 113.231 37.3031C113.217 37.3459 113.188 37.4029 113.174 37.4598C113.331 37.8588 113.732 38.7565 113.803 38.9417C114.876 39.4404 115.877 39.7539 117.421 39.4974C117.421 39.4974 117.678 39.4832 118.35 39.2552C119.022 39.0415 120.295 38.2863 121.267 37.3744C122.468 36.2487 123.212 35.0518 123.441 34.5816C125.328 30.9339 125.614 25.5052 125.614 23.3251V22.2137L125.571 22.171ZM113.832 40.4378C113.832 40.4378 113.217 38.8562 112.845 37.8873C112.745 38.0013 112.674 38.101 112.645 38.101C112.616 38.101 112.488 38.0298 112.316 37.8588C112.459 38.614 112.588 39.5544 112.616 40.2526C113.146 40.0389 113.574 40.2098 113.846 40.4236M112.288 40.908C112.33 40.2383 112.045 38.4003 111.873 37.3601C111.859 37.3459 111.83 37.3031 111.816 37.2889C111.773 37.2461 111.759 37.1891 111.716 37.1464C111.658 37.3601 111.573 37.5738 111.473 37.8018C111.358 38.0583 111.172 38.329 111.144 38.3148C111.101 38.3148 110.629 37.9585 110.314 37.2889C110 37.9585 109.528 38.3005 109.485 38.3005C109.442 38.3005 109.271 38.044 109.156 37.7876C109.099 37.6736 109.056 37.5453 109.013 37.4313C108.856 38.5143 108.613 40.2668 108.641 40.9223C107.626 40.2526 106.997 40.9223 107.212 41.3925C107.226 41.4352 107.254 41.4637 107.269 41.5065C107.383 41.6632 107.54 41.763 107.783 41.763C108.127 41.7772 108.541 41.8199 109.027 42.0337C109.485 42.2474 109.957 42.5894 110.457 43.2021C110.958 42.5894 111.43 42.2332 111.887 42.0337C112.388 41.7915 112.817 41.7772 113.131 41.763C113.346 41.7487 113.503 41.649 113.646 41.5065C113.66 41.4637 113.689 41.421 113.703 41.3925C113.918 40.9223 113.303 40.2668 112.302 40.9223M107.054 40.4378C107.326 40.1956 107.741 40.0389 108.284 40.2668C108.327 39.6114 108.427 38.6425 108.556 37.8018C108.341 38.0155 108.155 38.1153 108.141 38.1153C108.098 38.1153 108.084 38.0725 108.027 38.0155C107.655 39.0415 107.083 40.4378 107.054 40.4378ZM107.183 38.9132V38.8705C107.283 38.671 107.612 37.8588 107.798 37.4456C107.783 37.3744 107.755 37.3031 107.741 37.2319C107.498 37.2746 107.269 37.3174 107.026 37.3316C106.868 37.3459 104.538 37.7021 102.836 36.9184C103.036 36.7759 103.422 36.4624 103.937 36.1347C103.937 36.092 103.951 36.0635 103.951 36.035C103.537 36.2772 103.165 36.2915 102.865 36.2915C102.85 36.0207 102.908 35.6788 103.036 35.2798C102.665 35.351 102.364 35.2798 102.364 35.2798C102.364 35.2798 102.622 34.4534 103.179 33.4845C103.694 32.5583 104.423 31.6321 105.038 30.8769C105.095 30.5777 105.338 30.3212 105.367 30.2785C105.381 30.2642 105.453 30.1788 105.467 30.1645C105.396 30.1075 105.324 30.0505 105.267 30.0078C105.21 30.0933 105.153 30.1218 105.11 30.1503C104.909 30.2215 104.795 30.2642 104.695 30.2642C104.481 30.2642 104.352 30.2215 104.28 30.1218H104.266C104.109 30.0648 103.994 29.965 103.951 29.851C103.951 29.8368 103.937 29.794 103.937 29.7798C103.823 29.8225 103.737 29.8225 103.623 29.737C103.465 29.5946 103.68 28.9534 104.395 28.2837C104.895 27.8135 105.367 27.5285 105.796 27.3433C106.125 27.2008 106.325 27.4858 106.168 27.671C105.968 27.9132 105.81 28.3264 106.025 28.7539C106.225 28.6969 106.296 28.6541 106.339 28.6399C106.411 28.5972 106.511 28.5829 106.611 28.4404C106.625 28.4262 106.625 28.3977 106.654 28.3549L106.354 28.3977C106.511 28.0272 106.282 27.1153 106.439 26.5168C106.397 26.5311 106.296 26.6166 106.239 26.6308C106.125 26.1036 106.139 25.2345 106.182 24.8212C106.182 24.7073 106.025 24.522 105.81 24.3083C105.653 24.7358 105.353 25.2487 104.867 25.8471C104.495 26.3174 103.794 26.7306 103.465 28.2124C103.408 28.4689 103.322 28.6826 103.208 28.8964C102.965 29.3666 102.993 29.6516 102.993 29.6516C103.008 30.592 102.979 32.5298 102.736 33.6127C102.536 34.5531 102.207 35.0518 102.207 35.0518L102.15 35.0091C102.064 35.3225 101.907 35.8925 101.535 36.3484C101.535 36.3484 101.22 35.7215 100.62 30.8627C99.9907 25.5194 99.6475 19.9624 99.6475 19.9624C99.5904 18.9793 99.8048 17.8394 100.105 16.9845C100.62 15.6451 101.535 14.3342 102.078 13.7927C102.407 13.465 102.808 13.3795 103.179 13.465C103.079 13.3225 102.965 13.1658 102.965 13.1658C102.593 12.6671 102.178 12.1399 101.821 11.6697C99.2043 16.272 99.2615 21.7435 99.2615 21.7863V22.3847L98.8039 22.1425C96.702 20.9171 95.8155 20.2332 95.1435 19.6775C95.1292 20.2332 95.072 22.1282 95.072 22.1282V23.2681C95.072 25.4624 95.4723 30.8484 97.274 34.5246C97.5313 34.9806 98.1891 36.2202 99.4045 37.3459C100.32 38.215 101.406 38.8277 102.593 39.1982C102.65 39.2124 102.793 39.2552 102.865 39.2979C104.209 39.7254 105.71 39.6256 107.183 38.899M95.1864 19.0505C95.4437 19.2642 96.7306 20.3472 98.7896 21.5155C98.8325 20.2902 98.8754 15.9158 101.506 11.2422C101.206 10.8433 101.077 10.6723 100.791 10.3018C100.577 10.5155 100.291 10.6723 99.9049 10.8148C99.9192 9.8886 99.7333 9.37565 99.476 8.84845C99.1042 8.86269 98.4608 8.86269 97.4741 8.64896C96.1158 11.4845 95.458 14.7474 95.2007 19.0648M97.4456 8.62047C97.5599 8.53497 97.9746 8.2785 98.232 7.92228C98.3464 7.7513 98.4465 7.56606 98.5323 7.40933C98.518 7.39508 98.2606 7.05311 98.2606 7.05311C97.9889 7.56606 97.7029 8.07902 97.4456 8.60622M98.7896 6.92487C98.8325 6.85363 98.8754 6.78238 98.904 6.72539C98.2463 5.87047 97.8173 5.30052 97.7744 5.24352C97.6743 5.10104 97.4026 4.57383 97.4741 4.13212C96.6591 3.76166 96.1158 3.36269 96.1158 3.36269C96.1158 3.36269 97.3883 5.05829 98.7896 6.91062M98.8611 6.25518C98.9183 6.35492 99.0041 6.42617 99.0756 6.52591C100.148 5.15803 101.564 4.17487 103.308 3.53368C103.165 3.3342 102.965 2.87824 103.48 2.39378C104.237 2.49352 104.409 2.92098 104.466 3.16321C105.81 2.80699 107.397 2.56477 109.17 2.50777C109.228 1.28238 110.1 0.983161 110.1 0.983161C110.1 0.983161 110.114 0.740933 110.3 0.669689C110.472 0.740933 110.5 0.983161 110.5 0.983161C110.5 0.983161 111.372 1.28238 111.43 2.50777C113.203 2.56477 114.79 2.7785 116.134 3.16321C116.177 2.92098 116.377 2.49352 117.106 2.39378C117.607 2.89249 117.421 3.3342 117.278 3.53368C118.994 4.18912 120.481 5.18653 121.553 6.56865C121.625 6.46891 121.71 6.36917 121.768 6.26943C120.752 5.02979 119.38 4.04663 117.864 3.43394C118.021 2.93523 117.864 2.55052 117.592 2.2513C117.592 2.05181 117.478 1.88083 117.349 1.82383C117.206 1.80959 116.992 1.86658 116.835 2.02332C116.406 2.08031 115.991 2.32254 115.748 2.7785C114.647 2.50777 113.374 2.32254 111.773 2.2513C111.73 1.52461 111.301 1.06865 110.786 0.812176C110.672 0.555699 110.443 0.413212 110.271 0.356218C110.071 0.398964 109.857 0.555699 109.757 0.812176C109.228 1.06865 108.813 1.52461 108.77 2.2513C107.169 2.32254 105.925 2.50777 104.795 2.7785C104.552 2.32254 104.137 2.09456 103.708 2.02332C103.565 1.86658 103.351 1.80959 103.208 1.82383C103.094 1.88083 102.965 2.06606 102.965 2.2513C102.665 2.55052 102.507 2.96373 102.693 3.43394C101.192 4.04663 99.8477 5.01554 98.8325 6.25518M121.768 6.78238C121.768 6.78238 121.868 6.93912 121.882 6.98187C123.326 5.08679 124.656 3.34845 124.656 3.34845C124.656 3.34845 124.098 3.74741 123.298 4.11788C123.369 4.54534 123.097 5.08679 122.997 5.21503C122.954 5.25777 122.483 5.87047 121.768 6.76813M122.354 7.1386C122.282 7.23834 122.096 7.48057 122.096 7.48057C122.311 7.87953 122.554 8.29275 123.169 8.60622C122.926 8.10751 122.654 7.62306 122.354 7.15285M118.279 11.7979C118.379 11.6412 118.908 10.943 119.623 10.0168C119.566 9.95985 119.523 9.90285 119.48 9.84585C118.979 10.5013 118.493 11.1425 118.021 11.7979C117.664 12.2681 117.106 13.0376 117.106 13.1231C117.092 13.237 117.993 12.1541 118.279 11.7979ZM109.271 36.8187C109.356 37.0609 109.471 37.3459 109.571 37.5026C109.571 37.5026 110.028 37.1321 110.186 36.263C110.1 36.3484 109.943 36.4624 109.828 36.5194C109.585 36.6334 109.414 36.7332 109.271 36.8187ZM103.394 36.8187C104.123 37.0894 106.125 37.1321 107.083 37.0181C108.284 36.8614 109.199 36.5052 109.971 35.9495C109.771 35.7785 109.514 35.5505 109.256 35.3225C108.856 35.6645 108.484 35.921 108.27 35.9922C106.825 36.5622 104.952 36.7189 104.952 36.7189C104.952 36.7189 107.426 36.1632 108.27 35.693C108.427 35.6075 108.699 35.3795 109.042 35.0946C108.727 34.7811 108.413 34.4819 108.17 34.2396C108.012 34.3821 107.898 34.4819 107.712 34.5959C107.397 34.8381 106.926 34.9948 106.568 35.1516C104.824 35.8355 103.665 36.5907 103.408 36.8044M106.225 22.3705C106.368 21.9573 106.497 19.3782 105.467 18.2526C105.724 19.2642 106.068 20.4184 106.225 22.3705ZM104.266 15.9301C104.209 16.272 104.223 16.6995 104.309 17.013C104.366 17.2267 104.466 17.4404 104.552 17.6399C104.595 16.9702 104.409 16.2435 104.28 15.9301M104.809 16.7565C104.809 17.4832 104.952 18.0389 105.21 18.9223C105.224 17.9819 105.038 17.013 104.809 16.7565ZM101.049 9.9171C101.807 10.9288 102.379 11.6982 102.493 11.8264C102.75 12.1826 103.665 13.2655 103.665 13.1231C103.665 13.0376 103.108 12.2681 102.75 11.7979C102.236 11.114 101.707 10.4016 101.192 9.70337C101.135 9.77461 101.092 9.84585 101.049 9.90285M100.362 6.36917C100.291 6.28368 100.091 6.11269 99.6047 6.44041C98.761 7.1956 99.0327 7.86528 98.1462 8.44948C98.4608 8.50648 98.7181 8.53497 98.9326 8.53497C99.0756 8.53497 99.19 8.53497 99.3044 8.52073C99.4617 8.50648 99.6046 8.47798 99.719 8.46373C99.9335 8.96244 100.219 9.41839 100.219 10.2591C101.249 9.70337 100.834 7.95078 101.807 7.96503C101.249 7.35233 100.463 6.46891 100.362 6.36917ZM120.123 5.97021C119.566 5.41451 118.679 4.80181 117.607 4.34585C114.833 3.14896 111.315 3.12047 110.3 3.12047C109.285 3.12047 105.767 3.12047 102.993 4.34585C101.921 4.81606 101.049 5.41451 100.477 5.97021C100.477 5.97021 101.721 7.36658 102.064 7.7513C102.236 7.95078 102.279 8.12176 102.178 8.42098C104.094 7.1386 106.296 6.48316 110.2 6.46891H110.372C114.204 6.51166 116.463 7.15285 118.365 8.42098C118.264 8.12176 118.322 7.95078 118.479 7.7513C118.851 7.38083 120.109 5.97021 120.109 5.97021M119.594 8.91969C119.709 9.34715 119.852 9.84585 120.223 10.1451C120.281 10.1878 120.323 10.2163 120.395 10.2591C120.395 9.40414 120.667 8.96244 120.895 8.46373C121.21 8.50648 121.625 8.62047 122.454 8.47798C121.668 7.95078 121.825 7.33808 121.224 6.68264C121.167 6.6114 121.081 6.54016 121.01 6.46891C120.795 6.31218 120.638 6.26943 120.538 6.26943C120.381 6.26943 120.295 6.34067 120.266 6.38342C120.195 6.46891 119.351 7.35233 118.808 7.96503C119.323 7.95078 119.437 8.39249 119.594 8.90544M118.894 10.1308C118.979 10.0168 119.065 9.9171 119.151 9.78886C118.021 8.7772 116.334 7.77979 114.475 7.38083C113.231 7.1101 112.245 7.08161 111.601 7.08161C111.086 7.08161 110.758 7.28109 110.758 7.60881C110.443 7.55181 110.343 7.15285 110.3 7.08161C110.257 7.25259 110.128 7.58031 109.871 7.60881C109.871 7.29534 109.542 7.09585 109.013 7.08161C108.384 7.08161 107.383 7.09585 106.139 7.35233C104.252 7.76554 102.636 8.67746 101.506 9.70337C101.592 9.81736 101.664 9.9171 101.764 10.0311C102.779 9.09067 104.137 8.32124 105.581 7.90803C106.783 7.55181 108.255 7.43782 108.927 7.48057C109.528 7.49482 109.614 7.85104 109.542 8.03627C109.814 8.05052 110.214 7.83679 110.3 7.68005C110.357 7.79404 110.729 8.07902 111.058 8.03627C110.972 7.86528 111.072 7.50907 111.673 7.48057C112.345 7.43782 113.832 7.58031 115.019 7.90803C116.463 8.32124 117.893 9.17617 118.894 10.1166M114.447 15.5168C114.59 15.5168 114.718 15.5026 114.861 15.4171C114.976 15.3316 115.004 15.3031 115.033 15.2604C115.905 14.0065 117.521 11.9689 118.736 10.3731C116.263 7.92228 112.702 7.76554 111.773 7.82254C111.558 7.83679 111.301 8.02202 111.573 8.37824C111.372 8.47798 110.6 8.39249 110.329 8.13601C110.057 8.39249 109.285 8.46373 109.085 8.37824C109.356 8.02202 109.099 7.85104 108.884 7.82254C107.955 7.76554 104.209 8.12176 101.964 10.3018C103.208 11.9404 105.796 15.3744 105.867 15.4313C105.925 15.4883 106.039 15.5881 106.196 15.5881H106.254C106.397 15.5881 106.511 15.4883 106.654 15.3316C106.926 15.0324 107.054 14.8756 107.326 14.6049C107.841 14.092 108.313 13.693 108.398 13.6218C108.613 13.4223 108.67 13.2655 108.699 13.0946C108.684 12.9236 108.541 12.8381 108.441 12.7241C108.441 12.7383 108.398 12.7668 108.398 12.7811C108.327 12.7241 108.227 12.4249 108.227 12.4249L108.17 12.5674C108.17 12.5674 107.969 12.1114 107.669 12.1541C107.254 12.2111 106.983 12.0402 106.954 12.0117C106.94 12.0117 106.911 12.1541 106.911 12.3109H106.897C106.625 12.0687 106.525 11.4417 107.069 11.0427C107.397 10.7863 107.469 10.8005 107.726 10.6865C107.841 10.6295 107.926 10.5298 107.941 10.487C108.112 10.2733 108.47 10.1593 108.67 10.0881C108.927 10.0311 109.514 9.93135 110.128 9.97409C110.472 9.98834 110.786 10.0738 111.015 10.1736C111.187 10.2591 111.701 10.6295 111.987 11C112.159 11.2422 112.502 11.9404 112.688 12.3821C113.06 13.3083 113.017 13.2085 113.274 13.8212C113.574 14.5052 113.746 14.9041 114.032 15.3031C114.146 15.4456 114.247 15.5026 114.447 15.5168ZM106.825 22.228C106.825 22.5984 107.083 23.0972 107.44 23.2966C107.226 22.7409 107.069 22.5699 106.825 22.228ZM111.558 26.3031C111.415 26.5168 111.315 26.6451 111.144 26.7733C111.201 26.6166 111.201 26.4598 111.201 26.4598C111.115 26.6166 110.929 26.8588 110.801 26.9728C110.5 27.272 110.443 27.5712 110.443 27.5712C110.443 27.5712 110.515 27.4715 110.872 27.2578C111.287 27.0013 111.43 26.6593 111.544 26.3174M111.787 30.0933C111.687 29.9508 111.415 29.5803 111.158 29.3666C111.315 29.7655 111.401 29.9935 111.415 30.0933C111.43 30.0933 111.43 30.079 111.458 30.079C111.501 30.0648 111.53 30.0648 111.573 30.0648C111.616 30.0648 111.644 30.079 111.716 30.079C111.73 30.079 111.773 30.0933 111.787 30.0933ZM111.587 33.2137C111.801 33.4275 112.045 33.6697 112.245 33.8692C112.359 33.7552 112.459 33.6269 112.516 33.5557L111.859 32.943C111.859 32.943 111.759 33.057 111.587 33.2137ZM110.4 32.0026C110.7 32.3161 111.101 32.715 111.344 32.9715C111.515 32.8148 111.616 32.715 111.616 32.715L110.6 31.7889C110.6 31.7889 110.486 31.9028 110.386 32.0026M110.286 31.4611V31.8031L110.443 31.6321C110.443 31.6321 110.343 31.5181 110.286 31.4754M110.286 31.2617C110.286 31.2617 110.457 31.0622 110.543 30.9624H110.557C110.5 30.592 110.414 30.136 110.3 29.9508C110.286 30.1503 110.286 30.7772 110.286 31.2474M110.7 29.5661C110.743 29.8368 110.772 30.4922 110.801 30.706C110.872 30.6347 110.958 30.5492 111.044 30.4637C111.029 30.3497 110.944 29.8368 110.7 29.5518M110.271 29.2811C110.271 29.2811 110.329 29.2668 110.486 29.1671C110.629 29.0816 110.729 29.0104 110.801 28.8679C110.872 28.7254 110.858 28.6114 110.843 28.5544C110.843 28.5544 110.829 28.6684 110.643 28.8251C110.572 28.8821 110.472 28.9819 110.4 29.0674C110.3 29.1671 110.257 29.2811 110.257 29.2811M110.028 27.4145C110.028 26.9443 109.514 26.9016 109.399 26.4313C109.342 27.0868 109.8 27.101 110.028 27.4145ZM110.3 28.4832C110.3 28.4832 110.343 28.3834 110.5 28.2694C110.6 28.1982 111.187 27.842 111.315 27.671C111.43 27.5142 111.473 27.3005 111.473 27.3005C111.473 27.3005 111.372 27.4715 111.144 27.5997C110.944 27.7137 110.472 27.9987 110.386 28.1554C110.343 28.2409 110.329 28.2979 110.329 28.3264C110.329 28.2837 110.314 28.2409 110.286 28.1839C110.143 27.8847 109.714 27.7707 109.456 27.4715C109.299 27.272 109.285 27.2008 109.285 27.2008C109.285 27.4003 109.328 27.557 109.399 27.6567C109.471 27.7565 109.7 27.9275 109.971 28.1269C110.243 28.3407 110.3 28.4832 110.3 28.4832ZM110.086 29.0959C110.086 29.0959 110.028 28.7396 109.771 28.6256C109.771 28.8679 110.086 29.0959 110.086 29.0959ZM109.943 30.9624C109.943 30.6917 109.928 30.3782 109.9 30.2358C109.814 30.3497 109.757 30.5492 109.728 30.7345C109.728 30.7487 109.928 30.9482 109.943 30.9767M108.384 30.193C108.47 30.1788 108.656 30.079 108.784 30.0505C108.799 30.0505 108.842 30.0363 108.856 30.0363C108.913 29.8225 109.013 29.4806 109.099 29.3523C109.042 29.3381 108.513 30.0648 108.384 30.2073M109.242 30.25L109.414 30.421C109.456 30.2073 109.557 29.4948 109.514 29.4093C109.271 29.8653 109.242 30.1788 109.242 30.2358M109.256 26.2461C109.256 26.2461 109.256 26.1321 109.185 25.9754C109.142 25.9041 109.013 25.7759 108.942 25.7047C108.884 25.6477 108.884 25.6049 108.884 25.6049C108.87 25.6762 108.899 25.8756 108.927 25.9326C108.942 26.0039 108.999 26.1036 109.099 26.1749C109.199 26.2319 109.256 26.2461 109.256 26.2461ZM109.056 31.1619L106.94 33.1567C107.083 33.2992 107.212 33.4275 107.312 33.5272C107.355 33.5699 107.369 33.5699 107.412 33.5272C107.555 33.4132 109.642 31.4754 109.828 31.3187C109.843 31.3044 109.843 31.2759 109.828 31.2617C109.728 31.1619 109.514 30.9054 109.356 30.7487C109.156 30.5492 108.927 30.2927 108.756 30.3355C108.641 30.3735 108.508 30.4067 108.355 30.4352C107.898 30.5065 107.569 30.421 107.383 30.3782C107.369 30.3782 107.34 30.3782 107.34 30.364C107.34 30.421 107.326 30.4637 107.326 30.5065C107.326 30.5492 107.312 30.6062 107.312 30.649C107.526 30.6917 107.655 30.6917 108.184 30.6917C108.341 30.6917 108.456 30.7487 108.298 30.9054L106.84 32.3588C106.54 32.6295 106.525 32.7008 106.625 32.7863C106.64 32.8005 106.64 32.7863 106.725 32.886L107.297 32.3873L108.212 31.6036C108.212 31.6036 108.87 30.9909 108.899 30.9482C108.913 30.9054 108.985 30.9054 108.999 30.9339C109.013 30.9482 109.099 31.0479 109.113 31.0479C109.07 31.0907 109.07 31.1334 109.056 31.1619ZM112.302 30.7345C112.817 30.7345 112.96 30.7345 113.145 30.6917C113.131 30.6347 113.131 30.5777 113.103 30.535C113.103 30.4922 113.088 30.4637 113.088 30.421H113.074C112.902 30.4637 112.559 30.5635 112.102 30.478C111.887 30.4352 111.859 30.4352 111.701 30.3782C111.544 30.3355 111.301 30.592 111.101 30.7915C110.944 30.9624 110.729 31.2047 110.629 31.3044C110.615 31.3187 110.615 31.3472 110.629 31.3614C110.801 31.5181 112.931 33.456 113.045 33.5699C113.088 33.6127 113.103 33.6127 113.145 33.5699C113.246 33.4702 113.389 33.3277 113.517 33.1995C113.517 33.1995 111.444 31.2474 111.401 31.2047C111.358 31.1619 111.358 31.1192 111.387 31.1049C111.401 31.0907 111.487 30.9909 111.501 30.9624C111.515 30.9482 111.558 30.9482 111.601 30.9767C111.644 31.0194 112.302 31.6036 112.302 31.6036L113.188 32.4158L113.76 32.9145C113.832 32.829 113.832 32.8575 113.86 32.8148C113.946 32.715 113.918 32.658 113.646 32.3873L112.187 30.9339C112.045 30.7772 112.145 30.7345 112.302 30.7345ZM111.887 25.0635C111.887 25.0635 112.216 24.75 112.345 23.7241C112.402 23.7953 112.516 23.8808 112.559 24.0233C112.774 23.7668 113.188 22.3847 113.231 21.9145C113.374 21.9715 113.246 21.9288 113.403 22.0142C113.517 21.8148 113.76 21.0311 113.86 19.9482C113.918 19.9624 114.003 19.9624 114.032 20.0052C114.118 19.5065 114.175 18.7085 114.189 18.1528C114.204 17.6826 114.189 16.671 113.989 16.101C113.789 15.5311 113.689 15.2319 113.36 14.7047C113.36 14.7047 113.246 14.7617 113.188 14.8472C113.088 14.5764 112.845 13.9067 112.717 13.6645C112.402 13.0518 112.259 12.6528 111.93 12.4676C112.073 12.4676 112.13 12.5104 112.33 12.5104C112.116 12.3109 112.03 12.1684 111.801 11.9974C111.887 11.9404 112.016 11.9547 112.23 11.9974C111.916 11.6982 111.801 11.2707 110.958 10.9573C111.101 10.943 111.215 10.9715 111.415 10.9715C111.315 10.8148 111.058 10.544 110.643 10.4158C109.8 10.2591 108.627 10.2163 108.069 10.8718C108.027 10.9145 107.898 10.943 107.755 10.9858C107.655 11.0285 107.612 11.0427 107.598 11.0712C107.498 11.1567 107.483 11.228 107.655 11.4845C107.412 11.4417 107.355 11.228 107.312 11.2422C107.226 11.2992 107.154 11.3562 107.054 11.4987C106.968 11.6127 106.911 11.8692 106.911 11.9689C106.926 11.9832 107.126 12.0829 107.183 11.8549C107.197 11.7837 107.555 11.7409 107.698 11.7409C107.869 11.7409 108.055 11.7837 108.284 11.7837C108.198 11.8264 107.955 11.8834 107.855 11.9262C107.755 11.9689 107.741 12.0687 107.841 12.0829C107.941 12.0971 107.998 12.0402 108.098 12.0259C108.141 12.0402 108.098 12.1684 108.141 12.2396C108.842 12.0829 108.87 12.8096 109.599 12.6671C109.256 12.3964 108.97 11.9547 108.684 11.8122C109.399 11.9262 109.8 12.5674 110.572 12.5959C110.562 12.5484 110.529 12.4771 110.472 12.3821C110.729 12.3821 110.929 12.5816 111.001 12.5816C110.901 12.6813 110.686 12.7811 110.386 12.8238C110.443 12.9236 110.729 12.9378 110.829 12.9663C110.672 13.1088 110.486 13.1801 110.128 13.1088C110.014 13.2085 109.857 13.465 109.356 13.7642C109.356 13.6883 109.361 13.6075 109.371 13.522C109.042 13.7215 108.813 14.0777 108.556 14.149C108.627 14.035 108.699 13.807 108.756 13.693C107.884 14.4767 107.04 15.2461 106.711 15.8161C106.354 16.443 106.254 17.1127 106.296 18.1956C106.339 18.794 106.568 20.4184 106.625 20.7604C106.697 20.7461 106.74 20.7034 106.797 20.6891C107.011 21.886 107.626 23.6101 107.969 24.1658C108.027 24.0233 108.069 23.9663 108.17 23.9093C108.227 24.2228 108.384 24.6075 108.67 24.8355C108.67 24.6218 108.756 24.4793 108.784 24.4223C108.856 24.6645 108.827 25.3912 109.242 25.7759C109.228 25.5764 109.285 25.4054 109.342 25.149C109.428 25.3912 109.428 25.6762 109.542 25.9184C109.685 26.1891 109.843 26.4741 110 26.5453C109.985 25.9754 110.086 25.9896 110.1 25.7617C110.1 25.8187 110.314 26.0181 110.443 26.7448C110.872 26.4029 111.029 25.3484 111.029 25.3484C111.029 25.3484 111.144 25.4482 111.244 25.7474C111.616 25.3484 111.744 24.864 111.844 24.465C111.887 24.7073 111.887 24.9637 111.859 25.092M104.981 20.4326C105.296 20.8886 105.91 22.3135 105.896 23.2966C106.268 22.3277 105.653 20.3756 105.081 19.2927C105.081 19.6062 104.995 19.706 104.924 19.8199C104.809 18.5803 104.037 17.6684 103.894 16.7992C103.88 16.956 103.851 17.0557 103.823 17.1697C103.551 16.671 103.294 16.101 103.108 15.3886C103.051 15.4456 102.965 15.6593 102.965 15.9016C102.564 14.8329 102.951 14.3769 103.065 14.3199C103.365 14.149 103.723 14.4197 103.994 14.7332C104.409 15.1891 104.852 16.0868 106.211 16.1153C106.425 16.1153 106.525 16.0583 106.411 16.044C105.267 15.8303 105.067 15.3744 104.109 14.3484C103.522 13.693 102.922 13.3225 102.221 14.149C100.849 15.7448 100.42 17.1127 100.191 18.2098C100.048 18.8368 99.9478 20.1762 100.134 20.8316C100.291 20.7746 100.305 20.7319 100.305 20.7319C100.305 20.7319 100.477 22.5699 100.806 23.0259C100.906 22.8264 101.02 22.3562 101.02 21.9288C101.192 22.456 101.349 22.7552 101.592 23.0687C101.707 22.6127 101.707 22.1852 101.649 21.6865C101.921 22.342 102.121 22.6127 102.279 22.7124C102.393 22.4132 102.522 21.943 102.421 20.4469C102.536 21.0168 102.593 21.4585 102.622 21.7863C102.707 21.8433 102.793 21.9288 102.922 21.9858C102.979 21.829 103.122 21.6153 102.865 19.7202C103.494 21.772 103.136 22.3277 103.079 22.456C102.865 22.342 102.722 22.1852 102.65 22.0855C102.665 22.6982 102.55 22.9547 102.45 23.1684C102.207 23.0544 102.078 22.8692 101.921 22.6412C101.935 23.2681 101.778 23.6671 101.778 23.6671C101.778 23.6671 101.306 23.1399 101.192 22.7552C101.206 22.9974 101.035 23.7383 100.892 23.8523C100.377 23.1684 100.177 21.2163 100.177 21.2163C100.177 21.2163 100.134 21.2306 100.091 21.2733C100.105 21.7435 100.177 22.4987 100.248 23.3251C100.334 24.294 100.42 25.3912 100.52 26.3744C100.72 28.7254 100.992 31.0764 101.292 33.399C101.292 33.399 101.335 33.7979 101.392 33.9974C101.463 33.7552 101.492 32.8148 101.435 32.3161C101.421 32.2021 101.606 31.9741 101.592 31.2759C101.592 31.0052 101.249 27.386 101.163 25.9754C101.149 25.8044 101.12 25.4197 101.12 25.4197C101.135 25.4624 101.135 25.5194 101.163 25.5764C101.278 26.1036 101.363 26.6451 101.435 27.1865C101.478 27.5 101.535 27.8562 101.578 28.1982C101.721 29.2383 101.85 30.2927 101.878 31.3472C101.892 32.0168 101.678 32.2163 101.707 32.3588C101.821 33.1852 101.721 34.0117 101.549 34.4676C101.478 34.4534 101.435 34.3679 101.406 34.3251C101.521 34.9521 101.664 35.465 101.664 35.465C101.921 34.9378 102.064 34.3394 102.021 32.9145C102.021 32.8005 102.236 32.487 102.264 31.7461C102.278 31.5324 102.25 30.8342 102.164 29.965C102.05 28.4262 101.921 26.9016 101.807 25.3627C101.807 25.2915 101.792 25.1062 101.792 25.092C101.807 25.149 101.835 25.2345 101.835 25.3057C102.264 27.272 102.421 29.3096 102.55 31.3044C102.593 32.2163 102.25 32.886 102.279 33.0285C102.321 33.4845 102.321 33.4417 102.321 33.8407C102.307 34.3109 102.279 34.3679 102.279 34.3679C102.436 34.0117 102.936 32.8433 102.75 29.1813C102.75 29.1101 102.75 29.0104 102.736 28.9106C102.593 26.3601 102.393 24.693 102.393 24.693C102.636 25.4054 102.822 26.9443 102.965 28.7111C102.979 28.6969 103.008 28.6541 103.022 28.6114C103.279 27.9417 103.322 27.2578 103.279 26.5453C103.194 25.206 103.036 24.0946 103.036 24.0946C103.036 24.0946 103.079 24.1943 103.079 24.2085C103.122 24.3653 103.237 24.7643 103.38 25.4482C103.48 25.9184 103.537 26.3886 103.58 26.8873C103.58 26.9443 103.58 27.0298 103.594 27.0868C104.109 26.3316 103.894 24.807 103.637 23.2254C103.851 23.7383 104.266 25.1632 104.152 26.2176C104.924 25.5052 104.509 24.0661 104.209 22.456C104.638 23.4249 104.967 24.6218 104.867 25.3912C105.481 24.579 105.267 23.5104 104.709 21.4301C105.052 21.9858 105.524 23.3109 105.539 24.1088C105.882 23.2396 105.396 21.658 105.01 20.4041M105.796 27.8135C105.91 27.614 105.739 27.557 105.381 27.7992C105.167 27.9417 104.438 28.4119 104.052 28.9249C103.98 29.0389 103.994 29.1244 104.152 28.9676C104.523 28.5972 105.081 28.0842 105.081 28.3122C105.081 28.5259 105.095 28.7396 105.181 28.9676C105.238 28.9534 105.296 28.9534 105.353 28.9249L105.825 28.8109C105.667 28.3977 105.653 28.0415 105.782 27.8277M105.553 30.3355C105.353 30.5492 105.195 30.7915 105.195 31.1049C105.195 31.3187 105.338 31.4469 105.51 31.4469C105.782 31.4041 105.653 31.1049 105.81 31.3044C105.867 31.3756 106.082 31.1334 106.153 31.0622C106.039 31.0764 105.853 31.1049 105.882 30.9197C105.896 30.7772 105.996 30.6775 106.082 30.5777C106.168 30.478 106.397 30.0505 106.54 30.1075C106.625 30.1645 106.554 30.5635 106.439 30.8199C106.182 31.3471 106.139 31.7034 106.325 31.8316H106.339C106.325 32.0453 106.325 32.2448 106.554 32.3873H106.568C106.511 32.1736 106.568 32.0738 106.582 31.9741C106.582 31.9598 106.597 31.8886 106.439 31.8601C106.439 31.8601 106.64 31.8744 106.697 31.8601C106.797 31.8459 106.911 31.8174 106.94 31.6179C106.94 31.5609 106.954 31.4754 106.954 31.4184C106.997 31.1049 107.026 30.8342 107.097 30.6347C107.154 30.3925 107.212 29.8083 107.212 29.8083C107.212 29.8083 107.269 29.794 107.326 29.794C107.397 29.794 107.498 29.8368 107.54 29.965C107.555 30.0078 107.555 30.0648 107.54 30.1645C107.598 30.1503 107.698 30.0648 107.698 29.9508C107.798 29.8653 107.841 29.794 107.841 29.7086C107.884 29.4948 107.626 29.2668 107.598 29.2526C107.455 29.1386 107.498 28.9106 107.555 28.7254L107.641 28.5117C107.712 28.6114 107.812 28.6826 107.941 28.7681C108.284 29.0104 108.627 28.9391 108.627 28.9391C108.627 28.9391 108.556 28.7396 108.527 28.5117C108.484 28.1982 108.513 27.9132 108.513 27.9132L108.77 28.1839C108.77 28.1839 108.927 27.671 108.827 26.7021C108.713 25.5764 108.47 25.149 108.413 24.978C108.341 24.7215 108.198 24.465 108.198 24.465C108.198 24.465 108.184 24.6075 107.998 24.7642C107.783 24.4935 107.412 23.9521 107.312 23.5959C107.254 23.6956 107.169 23.7953 107.097 23.8666L107.054 23.9093V23.8523C107.011 23.5816 106.854 23.3821 106.697 23.1826C106.597 23.0402 106.497 22.9119 106.439 22.7694C106.339 23.0687 106.325 23.3821 106.325 23.6813C106.311 23.9806 106.282 24.2086 106.211 24.3938C106.268 24.351 106.311 24.3368 106.354 24.3083C106.411 24.2655 106.454 24.2513 106.468 24.2513H106.482L106.497 24.294C106.425 24.6645 106.339 25.1205 106.325 25.3912C106.282 25.7902 106.325 26.1179 106.339 26.3031C106.354 26.2889 106.64 26.1321 106.64 26.1321C106.64 26.1321 106.468 26.7021 106.568 27.6282C106.582 27.785 106.568 28.0557 106.554 28.1412C106.725 28.1269 106.883 28.0272 106.968 27.9845C106.911 28.2409 106.854 28.4547 106.768 28.5544C106.525 28.8679 106.039 28.9534 105.682 29.0531C105.224 29.1671 104.795 29.2668 104.38 29.4663C104.237 29.5233 104.109 29.6801 104.137 29.7798C104.18 29.8795 104.338 29.9223 104.395 29.9223L104.438 29.9793C104.538 30.136 104.867 30.0363 104.952 29.9935C105.052 29.9508 105.11 29.8938 105.124 29.8795C105.11 29.8938 105.01 29.8653 104.924 29.8368C104.909 29.8225 104.881 29.794 104.881 29.7798C104.867 29.5803 105.653 29.5661 105.767 29.5661C105.882 29.5661 105.925 29.5803 105.982 29.6801C105.982 29.6943 106.025 29.8225 105.553 30.3355ZM105.925 33.0997C105.767 33.5984 105.453 34.3109 104.981 35.0091C104.738 35.3368 104.395 35.7215 104.395 35.7215C104.395 35.7215 104.38 35.7785 104.352 35.8782L104.266 35.921L104.666 35.7073C104.666 35.7073 104.809 35.6503 104.867 35.6075C105.124 35.465 105.424 35.3368 105.724 35.2085C105.996 34.6956 106.354 34.0829 106.454 33.9262C106.411 34.0402 106.354 34.3964 106.039 35.0661L106.254 34.9806C106.711 34.8096 107.111 34.6671 107.283 34.5674C107.598 34.4249 107.741 34.3109 107.855 34.2111C107.869 34.1969 107.941 34.1541 107.969 34.0972L107.655 33.7837L107.54 33.8834C107.54 33.8834 107.369 34.0544 107.183 33.8977C107.04 33.7552 106.368 33.0285 106.311 32.943C106.254 32.8718 106.168 32.7293 106.325 32.5155C106.111 32.3018 106.082 32.0453 106.082 31.9171C105.982 31.8174 105.939 31.6606 105.968 31.4611C105.91 31.5039 105.825 31.5181 105.767 31.5181C105.71 31.5894 105.61 31.6321 105.496 31.6606H105.453C105.338 31.6606 105.238 31.6464 105.153 31.5609C105.086 31.5134 105.033 31.4421 104.995 31.3472C104.995 31.3472 104.995 31.3329 104.981 31.3329C104.609 31.7319 104.223 32.2591 103.708 33.0712C103.079 34.0971 102.922 34.4534 102.779 34.8523C103.194 34.8381 103.437 34.7526 103.98 34.1826C104.237 33.9119 104.909 32.943 105.324 32.4016C104.967 33.2707 104.595 33.9262 104.252 34.3679C103.88 34.8808 103.494 35.1943 103.494 35.1943C103.494 35.1943 103.337 35.294 103.237 35.807C103.508 35.807 104.266 35.3938 104.952 34.4676C105.21 34.1541 105.367 33.9119 105.896 33.0855M110.5 36.3912C110.5 36.9041 110.915 37.4171 111.029 37.4883C111.029 37.4883 111.187 37.2889 111.272 36.8044C110.915 36.6619 110.686 36.5052 110.5 36.3912ZM113.417 36.9754C114.361 37.0894 116.363 37.0751 117.106 36.7759C116.835 36.5622 115.676 35.8212 113.918 35.1231C113.56 34.9663 113.088 34.8096 112.774 34.5674C112.574 34.4249 112.445 34.3251 112.259 34.1541C111.687 33.6269 110.157 32.0453 109.885 31.7461L108.87 32.6723C108.87 32.6723 111.544 35.2798 112.216 35.6503C113.088 36.1205 115.548 36.6762 115.548 36.6762C115.548 36.6762 113.646 36.5337 112.216 35.9495C111.344 35.5933 108.613 32.9145 108.613 32.9145L107.955 33.5272C108.298 33.8977 109.027 34.7241 110.214 35.693C111.044 36.3627 112.059 36.8187 113.417 36.9754ZM115.319 32.4301C115.734 32.9573 116.406 33.9547 116.663 34.2111C117.221 34.7811 117.449 34.8381 117.864 34.8808C117.721 34.4819 117.592 34.1114 116.949 33.0855C116.606 32.5583 116.034 31.6891 115.462 31.0337C115.462 31.1334 115.462 31.2332 115.419 31.3329C115.405 31.3472 115.405 31.3756 115.376 31.3899C115.333 31.4469 115.305 31.5039 115.219 31.5609C115.119 31.6179 115.004 31.6606 114.904 31.6321C114.79 31.6179 114.69 31.5751 114.633 31.4896C114.575 31.4896 114.49 31.4754 114.432 31.4326C114.447 31.6321 114.418 31.7889 114.332 31.8886C114.332 32.0026 114.318 32.2591 114.118 32.4443C114.132 32.4586 114.161 32.487 114.161 32.487C114.304 32.7293 114.232 32.8575 114.175 32.9145C114.118 32.9715 113.446 33.7267 113.303 33.8549C113.131 34.0117 112.931 33.8407 112.931 33.8407L112.817 33.7409C112.817 33.7409 112.645 33.9119 112.502 34.0544C112.502 34.0544 112.516 34.0687 112.545 34.0972C112.759 34.2966 113.017 34.4391 113.303 34.5531C113.546 34.6529 114.246 34.9236 114.733 35.1088C114.618 34.7526 114.49 34.3536 114.361 33.9689C114.475 34.1399 114.833 34.7383 115.119 35.2655C115.104 35.2655 115.162 35.2798 115.133 35.2655C115.505 35.4365 116.02 35.693 116.406 35.921C116.363 35.7785 116.348 35.7073 116.348 35.7073C116.348 35.7073 115.991 35.351 115.748 34.9948C115.247 34.3109 114.933 33.5699 114.804 33.0855C115.362 33.9119 115.49 34.1541 115.719 34.4534C116.406 35.3795 117.149 35.7927 117.435 35.7927C117.335 35.2798 117.163 35.1658 117.163 35.1658C117.163 35.1658 116.82 34.8951 116.449 34.3821C116.52 34.4961 116.62 34.6244 116.434 34.3679C116.291 34.1684 116.363 34.2539 116.42 34.3536C116.077 33.9832 115.705 33.3277 115.347 32.4586M114.633 28.7824L115.062 28.8964C115.062 28.8964 115.205 28.9391 115.276 28.9534C115.348 28.7396 115.39 28.5117 115.376 28.2979C115.362 28.0557 115.934 28.5687 116.306 28.9534C116.463 29.1101 116.477 29.0246 116.406 28.9106C116.034 28.3977 115.305 27.9275 115.076 27.785C114.718 27.5712 114.547 27.6282 114.661 27.7992C114.818 28.0415 114.776 28.3977 114.618 28.7681M113.961 24.294C113.961 24.294 113.961 24.2513 113.975 24.2513H114.018C114.018 24.2513 114.075 24.2655 114.132 24.3083C114.175 24.3225 114.204 24.3653 114.275 24.3938C114.204 24.2228 114.175 23.9663 114.161 23.6813C114.146 23.3821 114.146 23.0829 114.046 22.7979C114.046 22.7979 114.032 22.7837 114.032 22.7552C113.989 22.8977 113.875 23.0259 113.775 23.1684C113.617 23.3679 113.474 23.5674 113.417 23.8381V23.8951L113.374 23.8523C113.46 23.9378 113.16 23.5959 113.16 23.5959C113.045 24.0091 112.316 24.921 112.145 25.1205C112.13 25.1632 111.844 25.5764 111.73 26.6023C111.63 27.5712 111.73 28.1839 111.73 28.1839L111.987 27.9132C111.987 27.9132 112.002 28.1839 111.973 28.5117C111.959 28.7539 111.873 28.9391 111.873 28.9391C111.873 28.9391 112.388 29.0104 112.788 28.5402L112.86 28.7396C112.917 28.9106 112.974 29.1529 112.817 29.2668C112.802 29.2811 112.545 29.5091 112.574 29.7228C112.588 29.8083 112.631 29.8653 112.717 29.9365C112.717 30.079 112.817 30.136 112.874 30.1788C112.86 30.079 112.874 30.022 112.874 29.9793C112.931 29.8368 113.031 29.8083 113.088 29.8083C113.145 29.8083 113.203 29.8225 113.203 29.8225C113.203 29.8225 113.26 30.421 113.317 30.649C113.36 30.8627 113.417 31.1477 113.46 31.4326C113.46 31.4896 113.474 31.5751 113.474 31.6321C113.489 31.8316 113.617 31.8459 113.717 31.8744H113.989H113.975C113.818 31.9171 113.832 31.9741 113.832 31.9883C113.846 32.0881 113.918 32.1878 113.846 32.3873H113.86C114.104 32.2876 114.104 32.0738 114.061 31.8744L114.075 31.8601C114.247 31.7604 114.218 31.4041 113.961 30.8484C113.846 30.592 113.789 30.1788 113.86 30.136H113.875C113.875 30.136 113.975 30.136 114.089 30.307C114.175 30.421 114.247 30.5207 114.361 30.6632C114.461 30.7772 114.532 30.9054 114.518 31.0052C114.518 31.0479 114.504 31.0622 114.475 31.0907C114.461 31.1049 114.432 31.1049 114.404 31.1049C114.347 31.1049 114.289 31.1049 114.247 31.0907C114.304 31.1477 114.518 31.3899 114.575 31.3329C114.733 31.1619 114.59 31.4469 114.876 31.4754C115.047 31.4754 115.19 31.3614 115.19 31.1477C115.19 31.0622 115.176 31.0052 115.176 30.9482C115.133 30.7345 114.976 30.535 114.904 30.4495L114.847 30.3925C114.375 29.8795 114.418 29.7655 114.447 29.7086C114.49 29.6231 114.532 29.6088 114.661 29.5946C114.833 29.5946 115.062 29.6088 115.062 29.6088C115.262 29.6516 115.576 29.6801 115.562 29.7798C115.562 29.794 115.548 29.8225 115.519 29.8368C115.462 29.851 115.348 29.8938 115.319 29.8795C115.333 29.8938 115.405 29.965 115.49 29.9935C115.562 30.0363 115.905 30.136 116.005 29.9793L116.048 29.9223C116.048 29.9223 116.263 29.908 116.306 29.7798C116.348 29.6801 116.205 29.5376 116.062 29.4663C115.948 29.4093 115.633 29.2953 115.347 29.2098C115.247 29.1671 115.104 29.1529 115.019 29.1244L114.447 28.9676C114.447 28.9676 114.132 28.8679 114.032 28.8109C113.975 28.7966 113.932 28.7681 113.918 28.7539C113.818 28.6969 113.746 28.6399 113.675 28.5402C113.617 28.4689 113.56 28.2267 113.474 27.9702C113.532 28.013 113.717 28.1269 113.932 28.1412C113.918 28.0557 113.889 27.7707 113.918 27.6282C113.989 26.6878 114.018 26.1464 114.018 26.1464C114.018 26.1464 114.175 26.3031 114.218 26.3459C114.261 26.1891 114.204 25.7902 114.161 25.3912C114.104 25.1347 114.018 24.7073 113.946 24.3083M116.32 16.956C116.391 16.6425 116.391 16.2008 116.363 15.8731C116.22 16.2008 116.048 16.9132 116.091 17.5829C116.163 17.3834 116.291 17.1839 116.334 16.956M115.433 18.8938C115.691 18.0104 115.834 17.4547 115.834 16.728C115.619 16.9845 115.419 17.9534 115.433 18.8938ZM114.604 18.0816C114.947 17.1127 114.661 16.6282 114.461 16.5C114.461 16.956 114.575 17.1554 114.604 18.0816ZM114.418 22.2992C114.561 20.3614 114.919 19.1788 115.176 18.1813C114.132 19.307 114.289 21.9145 114.418 22.2992ZM119.037 21.6723C118.979 22.171 118.979 22.5984 119.094 23.0544C119.337 22.7409 119.494 22.456 119.666 21.9145C119.666 22.342 119.809 22.8264 119.88 23.0117C120.195 22.5557 120.381 20.7319 120.381 20.7319C120.381 20.7319 120.395 20.7746 120.552 20.8316C120.724 20.1762 120.624 18.8368 120.495 18.2098C120.252 17.1127 119.823 15.7448 118.465 14.149C117.778 13.3225 117.178 13.693 116.577 14.3484C115.633 15.3744 115.405 15.8446 114.275 16.044C114.161 16.0583 114.261 16.1295 114.475 16.1295C115.862 16.1153 116.277 15.2034 116.692 14.7474C116.963 14.4482 117.321 14.1775 117.621 14.3342C117.735 14.3912 118.121 14.8329 117.721 15.9158C117.721 15.6736 117.621 15.4598 117.578 15.4029C117.407 16.1153 117.163 16.6852 116.863 17.1839C116.82 17.0699 116.806 16.9417 116.792 16.8135C116.649 17.6826 115.877 18.5946 115.762 19.8342C115.691 19.6917 115.605 19.6205 115.605 19.307C115.019 20.3899 114.404 22.3277 114.79 23.3109C114.776 22.3277 115.39 20.9029 115.705 20.4469C115.305 21.715 114.833 23.2824 115.233 24.237C115.247 23.4249 115.734 22.0997 116.062 21.5583C115.505 23.6529 115.276 24.7215 115.905 25.5194C115.805 24.7358 116.12 23.5389 116.563 22.5842C116.263 24.2228 115.848 25.6477 116.62 26.3459C116.506 25.2772 116.92 23.8666 117.135 23.3536C116.877 24.9352 116.663 26.4456 117.178 27.215C117.178 26.6593 117.278 26.1179 117.392 25.5764C117.535 24.8925 117.721 24.2228 117.721 24.2228C117.721 24.2228 117.564 25.3199 117.478 26.6736C117.464 26.8873 117.464 27.1295 117.464 27.3433C117.464 27.614 117.478 27.899 117.535 28.1697C117.578 28.4119 117.65 28.6399 117.778 28.8394C117.921 27.0583 118.107 25.5337 118.365 24.8212C118.365 24.8212 118.164 26.4741 118.036 29.0389C118.036 29.1386 118.036 29.2098 118.021 29.3096C117.864 32.9858 118.35 34.1399 118.493 34.4961C118.493 34.4961 118.45 34.4391 118.45 33.9689C118.436 33.5699 118.436 33.5984 118.493 33.1567C118.508 33.0142 118.164 32.3446 118.222 31.4469C118.236 30.8912 118.279 30.364 118.336 29.8225C118.379 29.3523 118.407 28.8821 118.479 28.4262C118.536 28.013 118.579 27.614 118.636 27.2008C118.722 26.6023 118.836 26.0181 118.936 25.4197C119.008 24.9495 118.979 25.3627 118.979 25.4767C118.936 26.0039 118.836 27.158 118.736 28.3407C118.679 29.2241 118.479 30.9767 118.522 31.8316C118.565 32.5583 118.779 32.9003 118.765 33C118.722 34.4249 118.865 35.0091 119.122 35.5505C119.122 35.5505 119.265 35.0376 119.38 34.4106C119.365 34.4534 119.308 34.5104 119.237 34.5531C119.065 34.0829 118.965 33.2707 119.079 32.4443C119.094 32.2876 118.879 32.1166 118.908 31.4326C118.922 30.3925 119.065 29.3238 119.208 28.2837C119.251 27.9275 119.308 27.5997 119.351 27.272C119.394 27.0583 119.408 26.8588 119.451 26.6593C119.494 26.3316 119.551 25.9896 119.623 25.6762C119.637 25.6192 119.637 25.5764 119.666 25.5194C119.666 25.5194 119.666 25.7617 119.623 26.0751C119.508 27.5 119.194 31.0907 119.194 31.3756C119.18 32.0881 119.365 32.3018 119.351 32.4158C119.308 32.9288 119.337 33.8692 119.394 34.0972C119.451 33.8834 119.494 33.4987 119.494 33.4987C119.494 33.4987 119.694 32.0453 119.923 29.965C119.966 29.6516 119.995 29.3381 120.023 28.9961C120.066 28.6969 120.08 28.3834 120.123 28.0699C120.166 27.6995 120.209 27.3148 120.223 26.9585C120.238 26.8018 120.238 26.6451 120.266 26.4883C120.352 25.5052 120.438 24.3938 120.538 23.4249C120.538 23.4249 120.681 21.8433 120.695 21.3588C120.652 21.3161 120.609 21.3018 120.609 21.3018C120.609 21.3018 120.438 23.2539 119.894 23.9521C119.751 23.8096 119.58 23.0829 119.594 22.8549C119.48 23.2539 118.994 23.7668 118.994 23.7668C118.994 23.7668 118.836 23.3679 118.851 22.7409C118.693 22.9832 118.55 23.1541 118.322 23.2681C118.222 23.0544 118.107 22.7979 118.121 22.1852C118.05 22.2992 117.878 22.4417 117.692 22.5557C117.635 22.399 117.278 21.8433 117.907 19.8199C117.65 21.715 117.807 21.9288 117.85 22.0855C117.95 22.0427 118.064 21.9715 118.15 21.886C118.164 21.544 118.236 21.1023 118.35 20.5466C118.25 22.0427 118.365 22.513 118.493 22.8122C118.579 22.6554 118.765 22.3847 119.051 21.7293M123.212 8.66321C122.225 8.87694 121.582 8.86269 121.21 8.86269C120.953 9.3899 120.752 9.90285 120.781 10.829C120.366 10.715 120.166 10.5868 119.952 10.3588C119.68 10.7293 119.523 10.9573 119.194 11.342C121.825 16.0155 121.825 20.3329 121.868 21.544C123.912 20.3756 125.214 19.2927 125.471 19.079C125.214 14.7332 124.542 11.4845 123.212 8.66321ZM123.941 34.8238C122.954 36.7759 121.71 38.0013 119.995 39.0842C117.507 40.6658 114.933 40.2953 114.075 39.7966C114.075 39.7966 114.132 39.9534 114.175 40.0104C114.189 40.0674 114.232 40.1671 114.247 40.2098C114.575 41.0933 114.347 42.0194 113.131 42.1619C112.817 42.2047 112.459 42.2189 112.03 42.4041C111.73 42.5466 111.415 42.7604 111.044 43.1308C110.886 43.2876 110.572 43.6865 110.429 44C110.271 43.6865 109.957 43.2876 109.814 43.1308C109.456 42.7604 109.128 42.5324 108.827 42.4041C108.413 42.2047 108.055 42.1904 107.712 42.1619C106.511 42.0194 106.268 41.0933 106.597 40.1956C106.611 40.1386 106.654 40.0531 106.682 39.9961L106.783 39.7824C106.168 40.1386 104.652 40.4093 102.865 39.9391C102.822 39.9249 102.722 39.8964 102.693 39.8964C101.263 39.5259 100.005 38.8135 98.9326 37.8018C97.6457 36.5907 96.9308 35.2798 96.6591 34.7811C94.2998 29.908 94.6144 22.6982 94.6144 21.9288C94.5429 13.579 96.4017 8.90544 97.9746 6.6399C97.5027 6.01295 97.2025 5.62824 97.1882 5.61399C97.0309 5.45725 96.7592 5.20078 96.173 5.11528C96.0157 4.01813 95.601 2.73575 95.601 2.73575C95.601 2.73575 96.6877 3.51943 97.7172 3.96114C97.6314 4.51684 97.7744 4.84456 97.9174 5.04404C97.9317 5.05829 98.1748 5.37176 98.5465 5.87047C99.2615 5.0013 99.9907 4.34585 101.178 3.67617C101.449 3.51943 101.764 3.36269 102.093 3.22021C102.078 2.76425 102.236 2.35104 102.522 2.05181C102.536 1.79534 102.765 1.48187 103.022 1.38212C103.294 1.29663 103.694 1.43912 103.894 1.62435C104.323 1.68135 104.766 1.92358 105.081 2.27979C106.053 2.08031 107.154 1.92358 108.427 1.85233C108.584 1.23964 108.985 0.783679 109.456 0.555699C109.571 0.299223 109.957 0.0284974 110.271 0C110.586 0.0142487 110.958 0.270725 111.086 0.555699C111.587 0.797927 111.973 1.23964 112.13 1.85233C113.403 1.93782 114.504 2.09456 115.462 2.27979C115.776 1.92358 116.191 1.70984 116.649 1.62435C116.849 1.42487 117.264 1.31088 117.521 1.38212C117.778 1.48187 117.993 1.79534 118.021 2.05181C118.322 2.35104 118.479 2.76425 118.45 3.22021C118.765 3.36269 119.079 3.51943 119.365 3.67617C120.552 4.34585 121.367 5.10104 122.054 5.91321C122.468 5.35751 122.726 5.02979 122.74 4.98705C122.883 4.78756 123.012 4.45984 122.94 3.90415C123.97 3.47668 125.056 2.67876 125.056 2.67876C125.056 2.67876 124.642 3.97539 124.484 5.05829C123.912 5.14378 123.655 5.40026 123.469 5.557C123.455 5.57124 123.112 6.01295 122.583 6.72539C124.17 8.99093 125.986 13.6503 125.914 21.9288C125.986 22.5984 126.315 29.9793 123.941 34.8238ZM105.281 6.42617C105.439 6.48316 105.539 6.54016 105.696 6.59715C105.81 6.45466 105.853 6.39767 105.996 6.24093C105.839 6.15544 105.724 6.12694 105.567 6.04145C105.481 6.18394 105.367 6.34067 105.296 6.41192M113.431 4.88731C113.431 4.88731 113.288 4.9728 113.231 5.08679C113.288 5.18653 113.403 5.20078 113.589 5.24352H113.689C113.76 5.07254 113.589 4.83031 113.431 4.88731ZM117.035 5.85622C116.963 6.09845 116.777 6.25518 116.663 6.38342C116.048 6.14119 114.69 5.79922 113.932 5.72798C113.732 5.94171 113.417 6.24093 113.103 6.32643C112.631 6.26943 112.33 6.15544 112.016 6.01295C112.187 6.0272 112.259 6.0272 112.373 6.01295C112.831 5.9987 113.246 5.85622 113.546 5.67098C112.888 5.57124 112.731 5.40026 113.045 4.98705C113.188 4.81606 113.417 4.45984 113.775 4.55959C114.046 4.64508 114.104 5.01554 114.089 5.31477C114.861 5.41451 115.834 5.67098 116.563 5.92746C116.62 5.71373 116.477 5.61399 116.391 5.45725C116.506 5.34326 116.663 5.20078 116.806 5.11528C117.006 5.21503 117.121 5.62824 117.049 5.87047M114.046 6.21244L114.361 6.52591C114.518 6.42617 114.604 6.38342 114.776 6.31218C114.661 6.19819 114.575 6.11269 114.447 5.9987C114.332 6.04145 114.146 6.15544 114.046 6.21244ZM117.392 6.0557C117.249 6.39767 117.121 6.72539 116.963 7.03886C117.063 7.08161 117.206 6.99611 117.292 6.93912C117.721 6.66839 118.064 5.91321 118.222 5.48575C118.222 5.48575 117.964 5.54275 117.821 5.59974C117.564 5.69948 117.521 5.75648 117.392 6.0557ZM117.607 5.38601C117.964 5.34326 118.293 5.44301 118.465 5.28627C118.25 5.22927 118.007 5.17228 117.936 5.04404C118.036 4.95855 118.179 5.05829 118.236 5.11528C118.279 5.07254 118.307 5.05829 118.379 5.0013C118.136 4.80181 117.793 4.93005 117.707 5.11528C117.764 5.15803 117.864 5.18653 117.907 5.22927C117.835 5.24352 117.692 5.32902 117.635 5.37176M104.252 6.72539C104.152 6.68264 104.052 6.66839 103.937 6.62565C103.851 6.73964 103.766 6.89637 103.723 6.99611C103.88 7.05311 103.994 7.06736 104.18 7.1386C104.237 7.03886 104.28 6.96762 104.338 6.88212C104.438 6.92487 104.538 6.93912 104.652 6.98187C104.752 6.83938 104.795 6.76813 104.895 6.6114C104.724 6.5544 104.623 6.51166 104.438 6.46891C104.366 6.5544 104.295 6.6399 104.266 6.72539M111.787 4.77332C111.573 4.40285 110.715 4.73057 110.186 4.9443C110.5 4.9443 110.758 4.93005 111.101 4.9443C111.244 4.9443 111.573 4.9443 111.816 4.95855C111.83 4.90155 111.83 4.84456 111.801 4.75907M112.159 5.45725C110.357 5.35751 106.811 5.54275 105.081 6.0272C105.081 6.0272 104.909 5.57124 104.738 5.41451C104.28 4.9158 104.08 5.45725 104.08 5.51425C104.652 5.55699 104.766 5.84197 104.766 5.84197C104.623 6.09845 104.523 6.18394 104.209 6.39767C104.109 6.46891 103.737 6.69689 103.222 6.73964C102.136 6.79663 102.436 5.65674 103.079 5.20078C103.008 5.30052 102.607 5.89896 102.836 6.21244C103.108 6.5544 104.123 6.26943 104.366 5.97021C104.223 5.85622 103.994 5.81347 103.637 5.82772C103.651 5.65674 103.737 5.20078 104.266 4.74482C104.466 4.78756 104.995 5.07254 105.181 5.5285C106.783 5.10104 109.714 4.9728 109.857 4.9728C109.814 4.70207 109.714 3.64767 109.714 3.59067C109.7 3.41969 109.814 3.3342 109.928 3.2772C110.043 3.49093 110.171 3.59067 110.443 3.69041C110.343 3.8044 110.243 3.8614 110.128 3.96114C110.143 4.17487 110.171 4.55959 110.171 4.71632C110.429 4.60233 110.801 4.45984 111.244 4.34585C111.401 4.30311 111.601 4.28886 111.716 4.30311C111.873 4.31736 112.059 4.40285 112.13 4.47409C112.202 4.53109 112.302 4.64508 112.302 4.80181C112.259 5.01554 112.202 5.25777 112.145 5.42876M109.099 10.829C109.099 10.829 108.856 10.8148 108.842 10.8433C108.827 10.886 108.956 10.943 109.013 10.9573C109.056 10.9715 109.085 10.9573 109.113 10.9145C109.128 10.8718 109.113 10.8433 109.099 10.8148M109.213 10.829C109.213 10.829 109.271 10.9145 109.228 11.0712C109.213 11.228 109.156 11.3705 108.913 11.4275C108.67 11.4845 108.413 11.3277 108.413 11.0855C108.413 11.0285 108.427 10.943 108.456 10.886C108.37 10.886 108.37 10.943 108.298 11.0427C108.255 11.0997 108.184 11.0997 108.055 11.1567C108.055 11.0142 108.212 10.7863 108.398 10.7008C108.656 10.5868 109.585 10.544 110.243 10.8718C110.043 10.829 109.843 10.829 109.628 10.829C109.356 10.8148 109.213 10.8148 109.213 10.8148M111.573 3.64767C111.43 3.54793 111.33 3.47668 111.201 3.37694C111.086 3.44819 110.929 3.57642 110.829 3.64767C110.944 3.74741 111.044 3.81865 111.187 3.91839C111.344 3.81865 111.401 3.76166 111.587 3.64767M107.726 11.1425C107.726 11.1425 107.655 11.2992 107.783 11.2992C107.898 11.2992 107.926 11.1567 107.926 11.1567C107.926 11.1567 107.783 11.0997 107.726 11.1425ZM111.687 12.2539C111.673 12.1684 111.473 11.8834 111.015 11.7837C111.129 11.8977 111.215 12.0972 111.258 12.1826C111.187 12.2254 110.944 12.2681 110.858 12.2681C111.015 12.3821 111.33 12.4106 111.687 12.2681M110.786 11.4845C110.529 11.1852 110.2 11.0712 110.014 11.057C110.229 11.2992 110.429 11.513 110.786 11.4845ZM110.557 11.0427C110.7 11.1852 111.129 11.3562 111.372 11.5984C111.358 11.1995 111.015 11 110.557 11.0427ZM110.386 16.4145C109.885 17.1697 110.386 17.9534 110.386 17.9391C110.386 17.9391 110.729 16.899 110.386 16.4145ZM111.215 19.3925C111.215 19.3925 111.787 18.8653 111.83 17.7824C111.515 18.3096 111.158 18.6088 111.158 18.6088C111.158 18.6088 110.858 18.4093 110.6 18.0959C110.615 18.7798 111.229 19.3925 111.215 19.3925ZM110.543 14.7332C110.086 15.2319 110.372 15.6166 110.372 15.6166C110.386 15.6166 110.929 15.0181 110.543 14.7332ZM111.201 12.9236C111.344 13.0661 111.816 13.1801 112.073 13.4223C112.03 13.0233 111.616 12.7953 111.201 12.9236ZM111.887 14.1205C111.887 13.8497 111.816 13.351 111.158 13.2513C111.115 13.579 111.687 13.7785 111.887 14.1205ZM111.63 15.0039C111.33 15.3174 111.616 15.9443 111.787 16.5285C111.944 16.2578 112.13 15.3316 111.63 15.0039ZM113.217 16.4715C113.045 17.2552 112.702 17.5544 112.702 17.5402C112.702 17.5402 112.431 17.3264 112.202 17.0272C112.187 17.6541 112.731 18.2668 112.717 18.2668C112.717 18.2668 113.374 17.7396 113.217 16.4715ZM112.388 13.7642C112.33 14.1205 112.902 14.6477 112.888 14.6477C112.888 14.6477 112.974 13.978 112.388 13.7642ZM113.374 15.4029C113.317 15.8161 113.803 16.7565 113.832 16.8277C113.832 16.7707 114.089 16.0013 113.374 15.4029ZM109.614 20.2759C109.728 20.0052 110.086 19.4637 109.914 18.5946C109.857 19.25 109.442 19.535 109.442 19.535C109.442 19.535 109.199 19.3925 109.027 19.0078C109.07 19.8199 109.385 20.0479 109.628 20.2759M109.199 15.3316C108.47 15.8873 108.799 16.4003 108.942 16.671C109.085 16.1438 109.142 16.0013 109.199 15.3316ZM108.827 16.9987C108.327 17.6114 109.099 18.3808 109.085 18.3951C109.085 18.3951 109.142 17.2267 108.827 16.9987ZM106.983 19.421C106.883 18.794 106.926 18.3808 106.625 17.8251C106.525 18.4948 106.926 19.3212 106.983 19.421ZM107.612 16.215C107.812 15.4883 108.227 15.0751 108.37 14.6334C107.641 15.1464 107.483 15.9585 107.612 16.215ZM107.926 18.1101C107.912 18.4236 107.926 18.7085 107.841 19.0505C107.626 18.9935 107.526 18.851 107.383 18.737C107.498 19.1503 108.012 19.6205 108.098 19.7487C108.17 19.1788 108.198 18.4806 107.926 18.1101ZM107.412 19.4922C107.24 20.2189 107.969 20.9313 107.984 20.9313C107.984 20.9456 107.984 20.0622 107.412 19.4922ZM107.626 21.4443C107.884 21.8575 108.084 22.057 108.284 22.2565C107.969 21.7863 107.712 20.8886 107.412 20.6606C107.369 20.8174 107.483 21.2163 107.626 21.4443ZM106.725 17.1554C106.668 16.7992 107.126 16.4715 106.968 15.8731C106.54 16.386 106.611 16.8562 106.725 17.1554ZM109.356 22.1282C109.256 22.114 108.827 21.7008 108.684 21.4443C108.742 21.8575 109.313 22.6697 109.599 22.8264C109.671 22.6839 110.014 22.0142 109.742 20.9741C109.628 21.6295 109.485 21.943 109.371 22.1425M111.315 20.2759C111.201 20.7034 111.001 21.0026 110.658 21.3161C110.515 21.2021 110.386 21.0453 110.2 20.6606C110.114 21.3873 110.543 21.8005 110.772 21.9573C110.929 21.8575 111.43 21.1736 111.301 20.2617M112.288 22.2137C112.745 21.658 112.96 21.0311 112.788 20.3756C112.388 21.0026 112.373 21.6295 112.288 22.2137ZM111.201 23.1684C111.344 22.8692 111.673 22.2992 111.601 21.6438C111.33 21.886 111.187 22.7694 111.201 23.1684ZM113.546 19.6205C113.746 19.307 114.018 18.851 113.803 18.5376C113.689 18.851 113.646 19.193 113.546 19.6205ZM112.073 20.6749C112.073 20.6749 112.831 19.9482 112.802 19.0363C112.588 19.649 112.073 19.9054 112.073 19.9054C112.073 19.9054 111.801 19.7345 111.658 19.3355C111.558 20.2474 112.073 20.6749 112.073 20.6749ZM113.446 18.6231C113.446 18.6231 113.918 17.7681 113.66 17.3264C113.346 17.3834 113.46 18.6231 113.446 18.6231ZM113.431 20.0337C113.131 20.4326 113.06 21.3161 112.974 21.6153C113.074 21.5155 113.603 20.2474 113.431 20.0337ZM110.071 24.3225C110.229 23.8523 110.186 23.2539 109.985 22.9974C109.843 23.4961 109.871 23.9378 110.071 24.3225ZM110.543 25.5764C110.7 25.1632 110.7 24.6218 110.529 24.408C110.386 24.8497 110.372 25.2345 110.543 25.5764ZM111.158 25.1632C111.301 24.8355 111.573 24.5078 111.573 23.4819C111.258 23.7811 111.144 24.7642 111.158 25.1632ZM109.242 24.3938C109.17 24.1516 109.042 23.3679 108.727 23.0117C108.613 23.6101 108.985 24.1516 109.242 24.3938ZM113.017 25.092C113.017 25.092 113.017 24.8497 112.945 24.7785C112.888 25.0777 112.516 25.6619 112.588 26.3744C112.759 25.7474 113.246 25.6192 113.374 25.035C113.474 25.1062 113.574 25.1347 113.689 25.149C113.632 24.9067 113.446 24.6788 113.389 24.2085C113.331 24.3653 113.274 24.8355 113.017 25.092ZM107.912 26.3316C107.984 25.6192 107.612 25.035 107.555 24.7358C107.469 24.807 107.469 25.0492 107.469 25.0492C107.212 24.7785 107.154 24.3225 107.097 24.1373C107.04 24.6075 106.854 24.8497 106.825 25.092C106.926 25.0777 107.026 25.0492 107.14 24.978C107.254 25.5764 107.741 25.7047 107.912 26.3459M104.066 19.763C104.066 19.763 103.823 19.706 103.694 19.5492C103.808 20.0479 104.252 20.2617 104.252 20.2617C104.252 20.2617 104.623 19.3782 103.78 18.0959C104.252 19.4352 104.08 19.7772 104.08 19.7772M103.58 21.1166C103.58 21.1166 103.365 21.0311 103.237 20.8601C103.322 21.2163 103.437 21.3731 103.766 21.6153C103.937 21.0881 104.037 20.6464 103.265 19.0648C103.78 20.6036 103.565 21.1166 103.565 21.1166M100.448 20.3756C100.448 20.3756 100.234 20.0337 100.191 19.136C99.9907 20.1049 100.362 20.6749 100.362 20.6749C100.362 20.6749 100.62 20.5181 100.606 20.2474C100.563 20.2902 100.448 20.3899 100.448 20.3899M100.92 19.9054C100.92 19.9054 100.677 19.5492 100.606 18.5233C100.434 19.6347 100.877 20.2617 100.877 20.2617C100.877 20.2617 101.149 20.0622 101.135 19.7487C101.092 19.8342 100.92 19.9054 100.92 19.9054ZM102.979 17.1839C102.779 16.9417 102.45 16.614 102.107 15.3744C102.15 16.4145 102.679 17.4119 103.065 17.7396C103.237 17.4689 103.279 16.6995 103.022 16.1153C103.022 16.1153 103.079 16.7422 102.979 17.1839ZM102.421 18.0531C102.25 17.8109 101.892 17.2837 101.664 16.0155C101.606 17.0557 102.093 18.2098 102.45 18.5661C102.665 18.3096 102.722 17.8394 102.507 17.2267C102.522 17.2267 102.564 17.6256 102.407 18.0531M101.907 18.6943C101.735 18.4378 101.492 18.0816 101.278 16.557C101.22 17.9391 101.592 18.7655 101.935 19.1645C102.15 18.9223 102.207 18.5091 102.15 18.2383C102.15 18.2241 102.035 18.5946 101.907 18.6943ZM101.421 19.3497C101.278 19.1075 101.163 18.8368 101.02 17.4689C100.92 18.6943 101.12 19.4637 101.421 19.8199C101.635 19.6205 101.692 19.25 101.664 18.9935C101.649 18.9935 101.549 19.2642 101.421 19.3497ZM120.037 20.1762C120.037 20.4469 120.281 20.6036 120.281 20.6036C120.281 20.6036 120.652 20.0337 120.452 19.0648C120.409 19.9767 120.195 20.3044 120.195 20.3044C120.195 20.3044 120.052 20.2332 120.037 20.1619M119.508 19.706C119.494 20.0194 119.766 20.2189 119.766 20.2189C119.766 20.2189 120.209 19.592 120.037 18.4806C119.937 19.5065 119.723 19.8627 119.723 19.8627C119.723 19.8627 119.551 19.7772 119.508 19.706ZM117.65 17.1127C117.549 16.6852 117.607 16.044 117.607 16.044C117.349 16.614 117.364 17.3977 117.564 17.6684C117.964 17.3264 118.479 16.3433 118.508 15.3031C118.164 16.5427 117.85 16.899 117.635 17.1127M118.207 17.9819C118.064 17.5687 118.093 17.1554 118.093 17.1554C117.893 17.7539 117.95 18.2383 118.15 18.4948C118.508 18.1386 119.022 16.9987 118.936 15.9443C118.736 17.2124 118.379 17.7396 118.207 17.9819ZM119.351 16.5285C119.137 18.0531 118.894 18.4093 118.722 18.6516C118.608 18.5518 118.479 18.1813 118.479 18.1813C118.422 18.4521 118.465 18.8938 118.693 19.1075C119.022 18.737 119.408 17.8964 119.351 16.5285ZM119.623 17.4404C119.48 18.8083 119.365 19.079 119.222 19.3212C119.108 19.25 119.008 18.965 119.008 18.965C118.965 19.2073 119.022 19.592 119.251 19.7915C119.508 19.421 119.723 18.6658 119.623 17.4404ZM116.563 19.7202C116.563 19.7202 116.391 19.364 116.835 18.0246C115.977 19.307 116.363 20.1904 116.363 20.1904C116.363 20.1904 116.82 19.9767 116.935 19.478C116.792 19.649 116.563 19.7202 116.563 19.7202ZM117.407 20.8031C117.335 21.1593 117.206 21.3161 116.877 21.5583C116.706 21.0311 116.606 20.5894 117.378 19.0078C116.863 20.5609 117.078 21.0738 117.078 21.0738C117.078 21.0738 117.278 20.9741 117.407 20.8031Z" fill="#000101"/>
<path d="M52.4189 26.3604C53.7057 26.3604 54.3203 27.1297 54.3203 28.3408V30.3213C54.3203 31.9882 53.6914 32.6581 52.4189 32.6582C51.1464 32.6582 50.503 32.0167 50.5029 30.3213V28.3408C50.5029 27.1439 51.1321 26.3604 52.4189 26.3604ZM81.7168 26.3604C82.9893 26.3604 83.6473 26.8301 83.6045 28.1123H82.7891C82.789 27.4143 82.4885 27.0156 81.7021 27.0156C81.4729 27.0157 80.587 27.0587 80.5869 28.3262V30.3643C80.587 31.6746 80.9875 32.0165 81.7021 32.0166C82.2597 32.0166 82.6317 31.8601 82.7891 31.7461V29.9365H81.6738V29.2666H83.5615V32.2021C83.0754 32.4729 82.4746 32.6582 81.7168 32.6582C80.4443 32.6582 79.8155 31.9882 79.8154 30.3213V28.3408C79.8154 27.1439 80.4442 26.3604 81.7168 26.3604ZM1.98828 26.5029C2.76016 26.503 3.30365 26.7734 3.61816 27.4287C3.86124 27.9417 3.88965 29.139 3.88965 29.3242C3.88963 30.6207 3.77494 31.3618 3.51758 31.7607C3.18866 32.2735 2.57353 32.5439 1.51562 32.5439H0.114258V26.5029H1.98828ZM8.36426 27.1729H6.01953V29.1104H8.20703V29.7803H6.01953V31.874H8.42188V32.5439H5.2334V26.5029H8.36426V27.1729ZM11.3242 26.5029C12.1249 26.5029 13.0116 26.8019 13.0117 28.2266C13.0117 29.6514 11.9248 29.8799 11.3242 29.8799H10.2949V32.5439H9.53711V26.5029H11.3242ZM18.0166 32.5439H17.1445L16.7158 31.1055H14.3701L13.9131 32.5439H13.126L15.0566 26.5029H16.043L18.0166 32.5439ZM26.8672 27.1729H25.2803V32.5439H24.5078V27.1729H22.9209V26.5029H26.8672V27.1729ZM30.4707 31.5752H30.499L32.0293 26.5029H33.3018V32.5439H32.5439V27.1729H32.5146L30.8281 32.5439H30.0986L28.4395 27.1729H28.4111V32.5439H27.6816V26.5029H28.9404L30.4707 31.5752ZM37.792 27.1729H35.4463V29.1104H37.6348V29.7803H35.4463V31.874H37.8486V32.5439H34.6602V26.5029H37.792V27.1729ZM42.3389 31.6748H42.3525V26.5029H43.0674V32.5439H42.0098L39.6074 27.3008H39.5791V32.5439H38.8926V26.5029H39.9795L42.3389 31.6748ZM47.8721 27.1729H46.2705V32.5439H45.498V27.1729H43.9111V26.5029H47.8721V27.1729ZM58.582 27.1729H56.3652V29.1104H58.4678V29.7803H56.3652V32.5439H55.5791V26.5029H58.582V27.1729ZM64.373 27.1729H62.0273V29.1104H64.2148V29.7803H62.0273V31.874H64.415V32.5439H61.2412V26.5029H64.373V27.1729ZM68.9189 31.6748H68.9336V26.5029H69.6201V32.5439H68.5615L66.1885 27.3008H66.1602V32.5439H65.4736V26.5029H66.5605L68.9189 31.6748ZM74.1533 27.1729H71.8086V29.1104H73.9961V29.7803H71.8086V31.874H74.21V32.5439H71.0215V26.5029H74.1533V27.1729ZM86.4639 29.4238L87.6797 26.5029H88.4658L86.8213 30.25V32.5439H86.0488V30.25L84.4189 26.5029H85.291L86.4639 29.4238ZM20.8906 26.4883C21.977 26.4885 22.3486 27.2297 22.3486 27.999C22.3486 28.7113 21.9484 29.2531 21.248 29.3672C21.934 29.5097 22.1915 29.7237 22.2344 30.9346C22.2345 31.1917 22.3339 32.1316 22.4482 32.5303H21.6484C21.434 32.1171 21.4761 31.3331 21.4189 30.5352C21.3618 29.7944 20.7617 29.7656 20.5186 29.7656H19.5889L19.5742 29.751V32.5303H18.8027V26.4883H20.8906ZM77.2988 26.4883C78.3852 26.4885 78.7568 27.2297 78.7568 27.999C78.7568 28.7113 78.3567 29.2531 77.6562 29.3672C78.3423 29.5097 78.5997 29.7237 78.6426 30.9346C78.6427 31.1917 78.7431 32.1316 78.8574 32.5303H78.0566C77.8422 32.1171 77.8843 31.3331 77.8271 30.5352C77.77 29.7943 77.1842 29.7656 76.9268 29.7656H75.9971L75.9834 29.751V32.5303H75.2109V26.4883H77.2988ZM52.3906 27.0156C52.1619 27.0156 51.2745 27.0581 51.2744 28.3262V30.3643C51.2745 31.6748 51.6758 32.0166 52.3906 32.0166C53.1052 32.0165 53.5058 31.6887 53.5059 30.3643V28.3262C53.5058 27.0731 52.6485 27.0157 52.3906 27.0156ZM0.886719 31.8604L0.901367 31.874H1.62988C2.71658 31.874 3.10352 31.4893 3.10352 30.0645V28.8252C3.10351 27.6141 2.73103 27.1582 1.91602 27.1582H0.886719V31.8604ZM14.5703 30.4209H16.5156L15.5283 27.2012L14.5703 30.4209ZM10.3232 29.21H11.1523C11.4669 29.21 12.2393 29.124 12.2393 28.1836C12.239 27.2444 11.5541 27.173 11.3818 27.1729H10.3232V29.21ZM19.5889 29.082H20.7324C21.2901 29.082 21.5625 28.6112 21.5625 28.084C21.5624 27.6566 21.3474 27.1582 20.7471 27.1582H19.5889V29.082ZM76.0117 29.082H77.1416C77.699 29.0818 77.9707 28.611 77.9707 28.084C77.9706 27.6566 77.7559 27.1583 77.1699 27.1582H76.0117V29.082ZM81.6172 20.4326H79.458C79.4532 20.4326 79.4481 20.4308 79.4434 20.4307V20.4609H61.5557C61.541 20.4609 61.5268 20.458 61.5127 20.457V20.4756H60.8838V20.7891H60.8984L60.9121 20.7744C60.9121 21.0878 60.8983 21.4015 60.8555 21.7148C60.8126 22.0283 60.7406 22.3279 60.5977 22.5986C60.4547 22.855 60.269 23.0693 60.0117 23.2402C59.7544 23.3969 59.3966 23.4961 58.9678 23.4961V22.7549C59.2394 22.7549 59.454 22.698 59.6113 22.584C59.7686 22.47 59.883 22.3274 59.9688 22.1279C60.0402 21.9286 60.1117 21.7431 60.126 21.501C60.1402 21.259 60.1406 21.017 60.1406 20.7607V16.1016H60.8838V19.7344H61.4092C61.4549 19.7185 61.5029 19.7061 61.5557 19.7061H79.2686C79.326 19.6807 79.3887 19.6631 79.458 19.6631H80.873V16.0869H81.6172V20.4326ZM3.44531 19.5059H3.45996L3.47461 19.5205C3.47461 19.6628 3.53136 19.7196 3.64551 19.7197H3.99902C4.0322 19.7115 4.06681 19.7061 4.10352 19.7061H15.7568C15.1422 19.2929 14.8282 18.7087 14.8281 17.9395C14.8281 17.5833 14.8844 17.2551 15.0273 16.9844C15.1703 16.7137 15.3569 16.4719 15.6143 16.2725C15.8716 16.073 16.1716 15.9445 16.5146 15.8447C16.872 15.745 17.2583 15.6875 17.6729 15.6875C17.8299 15.6875 17.973 15.688 18.1016 15.7021C18.2159 15.7021 18.3737 15.7161 18.5596 15.7588V20.4473H14.3408V20.4609H3.5459C3.31721 20.4609 3.11722 20.3896 2.95996 20.2188C2.80273 20.0621 2.74516 19.8342 2.74512 19.5352V16.4424C2.54506 16.5136 2.34481 16.6419 2.11621 16.7559C1.87318 16.8698 1.65816 17.0267 1.45801 17.2119C1.2579 17.3828 1.08632 17.611 0.943359 17.8389C0.800447 18.081 0.72859 18.3519 0.728516 18.6367C0.728516 19.0499 0.872157 19.3355 1.11523 19.4922C1.37261 19.6489 1.75891 19.7629 2.31641 19.8057L2.25879 20.5469C1.77283 20.5326 1.38676 20.4329 1.07227 20.3047C0.771993 20.1622 0.543028 20.005 0.385742 19.834C0.228497 19.663 0.113836 19.4637 0.0566406 19.25C-0.000554103 19.0363 -0.0146484 18.8362 -0.0146484 18.6367C-0.0145655 18.124 0.128794 17.6821 0.400391 17.2832C0.672003 16.9129 0.986758 16.5855 1.3584 16.3291C1.7301 16.0727 2.10166 15.8589 2.50195 15.7021C2.90215 15.5455 3.20229 15.431 3.44531 15.374V19.5059ZM32.7871 18.0957C32.9587 17.825 33.202 17.5257 33.4736 17.2266C33.7453 16.9275 34.0884 16.6713 34.5029 16.4434C34.889 16.2154 35.3752 16.0155 35.9043 15.873C36.4332 15.7164 37.0479 15.6309 37.7197 15.6309H38.0918V19.6914H38.7207V19.7061H49.5596V12.9805L49.5732 12.9951H50.3027V20.4609H38.7207C38.6563 20.4609 38.5981 20.4513 38.5439 20.4326H31.3428V20.4609H19.7324V13.0371H20.4756V19.7197H21C21.0332 19.7115 21.0678 19.7061 21.1045 19.7061H32.043V12.9805H32.7871V18.0957ZM52.2041 20.4609H51.4609V13.0371H52.2041V20.4609ZM58.8682 20.4609H58.1104C57.853 20.4609 57.5805 20.4183 57.2803 20.3613C56.9658 20.3043 56.6941 20.1899 56.4082 20.0332C56.1367 19.8765 55.9218 19.6773 55.7217 19.4209C55.5502 19.1645 55.4503 18.8511 55.4502 18.4951C55.4502 18.1674 55.5074 17.8533 55.6504 17.5684C55.7934 17.2977 55.9506 17.0409 56.165 16.8271C56.3795 16.6135 56.5946 16.4141 56.8662 16.2432C57.1233 16.0724 57.3806 15.9303 57.6377 15.8164C57.8951 15.7024 58.1244 15.6019 58.3389 15.5449C58.5532 15.4595 58.7395 15.4314 58.8682 15.3887V20.4609ZM83.5039 20.4609H82.7607V13.0371H83.5039V20.4609ZM86.2354 15.5742C86.6357 15.5742 86.9504 15.645 87.2363 15.8018C87.508 15.9585 87.7516 16.1576 87.9375 16.4141C88.1376 16.6704 88.2658 16.9699 88.3516 17.2832C88.4517 17.6109 88.4951 17.9535 88.4951 18.2812C88.4951 18.5375 88.4803 18.7937 88.4375 19.0215C88.3946 19.2493 88.3374 19.4775 88.2803 19.6484C88.2231 19.8479 88.1659 20.0056 88.0801 20.1338C88.0229 20.2761 87.9657 20.3761 87.9229 20.4473H84.4053V19.7061H87.4512C87.5084 19.5636 87.5649 19.378 87.6221 19.1357C87.6793 18.8935 87.7227 18.6085 87.7227 18.2666C87.7226 18.0102 87.6793 17.7535 87.6221 17.4971C87.5363 17.255 87.4509 17.041 87.3223 16.8701C87.1793 16.6992 87.0217 16.5573 86.8359 16.4434C86.6358 16.3294 86.4212 16.2861 86.1924 16.2861C85.9924 16.2862 85.7924 16.3288 85.5781 16.3857C85.3636 16.4712 85.12 16.5857 84.877 16.7852L84.4688 16.2373C84.6673 16.0824 84.8946 15.928 85.1914 15.7871C85.4916 15.6446 85.8351 15.5742 86.2354 15.5742ZM17.7158 16.4434C17.4587 16.4434 17.2015 16.4573 16.9443 16.5C16.687 16.5427 16.458 16.6145 16.2578 16.7285C16.0577 16.8425 15.9002 16.9988 15.7715 17.1982C15.6571 17.3692 15.5996 17.6543 15.5996 17.9678L15.5938 18.1396C15.6319 18.5297 15.8058 18.8478 16.1436 19.1221C16.5153 19.4211 17.0875 19.6347 17.8594 19.7344V16.4434H17.7158ZM37.334 16.4434C36.4904 16.5288 35.7758 16.7 35.2324 16.9707C34.6891 17.2414 34.2312 17.5545 33.9023 17.8965C33.5735 18.2384 33.3165 18.5805 33.1592 18.9082C33.002 19.2643 32.8873 19.5207 32.8301 19.7344H37.3486V16.4434H37.334ZM58.1523 16.4004C57.9809 16.4716 57.7807 16.5711 57.5664 16.6992C57.3234 16.8132 57.1376 16.9701 56.9375 17.1553C56.7374 17.3262 56.5658 17.5255 56.4229 17.7676C56.2799 17.9955 56.2081 18.2523 56.208 18.5371C56.208 18.7508 56.2656 18.9219 56.3799 19.0928C56.4943 19.2495 56.6514 19.3641 56.8516 19.4639C57.0517 19.5636 57.2523 19.6203 57.4668 19.6631C57.6811 19.7058 57.8811 19.7197 58.0811 19.7197H58.1523V16.4004ZM84.4688 16.2373C84.4666 16.239 84.465 16.2415 84.4629 16.2432V16.2295L84.4688 16.2373ZM81.1162 13.8213C81.3736 13.8213 81.6313 13.8788 81.8887 13.9785L81.7471 14.3428C81.5374 14.2472 81.3408 14.2061 81.1445 14.2061C81.0303 14.2061 80.9304 14.2208 80.8447 14.292C80.7733 14.3347 80.7305 14.434 80.7305 14.5479C80.7305 14.7187 80.8016 14.8613 80.9443 14.9326C81.0873 15.0181 81.2592 15.0469 81.4736 15.0469H81.8311V15.417H79.915V15.0469H80.5303C80.5303 15.0469 80.4589 14.9756 80.416 14.8477C80.3731 14.7479 80.3584 14.6335 80.3584 14.5195C80.3584 14.2633 80.4299 14.0925 80.5869 13.9785C80.7442 13.8788 80.9161 13.8213 81.1162 13.8213ZM1.37207 13.6787C1.51506 13.6787 1.60108 13.7215 1.70117 13.8213C1.80111 13.9209 1.84365 14.0346 1.84375 14.1484C1.84375 14.2909 1.80126 14.4053 1.70117 14.4766C1.60109 14.5763 1.48644 14.6191 1.37207 14.6191C1.22933 14.6191 1.1154 14.5761 1.04395 14.4766C0.943855 14.3768 0.900391 14.2624 0.900391 14.1484C0.900468 14.0061 0.943945 13.8925 1.04395 13.8213C1.14392 13.7217 1.25783 13.6788 1.37207 13.6787ZM2.98828 13.6787C3.13119 13.6787 3.24592 13.7216 3.31738 13.8213C3.38872 13.9208 3.4598 14.0347 3.45996 14.1484C3.45996 14.2908 3.4173 14.4053 3.31738 14.4766C3.21734 14.5763 3.10262 14.6191 2.98828 14.6191C2.84529 14.6191 2.73067 14.5763 2.65918 14.4766C2.55911 14.3768 2.5166 14.2624 2.5166 14.1484C2.51668 14.0062 2.55928 13.8925 2.65918 13.8213C2.75927 13.7215 2.87389 13.6787 2.98828 13.6787ZM56.9229 13.6787C57.0658 13.6787 57.1805 13.7215 57.252 13.8213C57.3519 13.9209 57.3944 14.0346 57.3945 14.1484C57.3945 14.2909 57.352 14.4053 57.252 14.4766C57.1519 14.5763 57.0372 14.6191 56.9229 14.6191C56.7801 14.6191 56.6662 14.5761 56.5947 14.4766C56.4946 14.3768 56.4512 14.2624 56.4512 14.1484C56.4512 14.0061 56.4947 13.8925 56.5947 13.8213C56.6947 13.7217 56.8086 13.6788 56.9229 13.6787ZM58.5244 13.6787C58.6674 13.6787 58.782 13.7215 58.8535 13.8213C58.9534 13.9209 58.996 14.0346 58.9961 14.1484C58.9961 14.2909 58.9536 14.4053 58.8535 14.4766C58.7534 14.5763 58.6388 14.6191 58.5244 14.6191C58.3815 14.6191 58.2811 14.5763 58.1953 14.4766C58.0954 14.3769 58.0527 14.2624 58.0527 14.1484C58.0528 14.0063 58.0956 13.8925 58.1953 13.8213C58.2954 13.7216 58.4101 13.6787 58.5244 13.6787ZM16.5293 13.4795C16.6722 13.4795 16.7726 13.5224 16.8584 13.6221C16.9582 13.7216 17.0009 13.8355 17.001 13.9492C17.001 14.0916 16.9583 14.2061 16.8584 14.2773C16.7583 14.3771 16.6437 14.4199 16.5293 14.4199C16.3863 14.4199 16.2717 14.3771 16.2002 14.2773C16.1001 14.1776 16.0576 14.0632 16.0576 13.9492C16.0577 13.807 16.1003 13.7075 16.2002 13.6221C16.3003 13.5223 16.4149 13.4795 16.5293 13.4795ZM18.1592 13.4795C18.3022 13.4795 18.3882 13.5223 18.4883 13.6221C18.5596 13.7217 18.6307 13.8354 18.6309 13.9492C18.6309 14.0917 18.5883 14.2061 18.4883 14.2773C18.3882 14.3771 18.2736 14.4199 18.1592 14.4199C18.0162 14.4199 17.9302 14.3771 17.8301 14.2773C17.7301 14.1776 17.6875 14.0632 17.6875 13.9492C17.6876 13.8071 17.7303 13.7074 17.8301 13.6221C17.9302 13.5223 18.0448 13.4795 18.1592 13.4795ZM81.7598 14.3486H81.7451L81.7471 14.3428C81.7513 14.3447 81.7556 14.3467 81.7598 14.3486Z" fill="black"/>
</g>
<defs>
<clipPath id="clip0_1_1249">
<rect width="126" height="44" fill="white"/>
</clipPath>
</defs>
</svg>
